<svg xmlns="http://www.w3.org/2000/svg" viewBox="0 0 80.09 20.9"><defs><style>.cls-1{fill:#606060;}</style></defs><title>Asset 10</title><g id="Layer_2" data-name="Layer 2"><g id="organizatori_partnioti" data-name="organizatori partnioti"><path class="cls-1" d="M30.44,11v9.54h3.91V11a1.72,1.72,0,0,1,1.77-1.77l1.53,0V5.34l-1.53,0A5.62,5.62,0,0,0,30.44,11Z"/><path class="cls-1" d="M59.33,11.17Z"/><path class="cls-1" d="M69.76,9.88a6.86,6.86,0,0,0-1.41-2.43A6.53,6.53,0,0,0,66,5.82a8.06,8.06,0,0,0-3.15-.57A7.4,7.4,0,0,0,57.4,7.56,7.46,7.46,0,0,0,55.83,10a8,8,0,0,0-.57,3,8.28,8.28,0,0,0,.57,3.13,7.58,7.58,0,0,0,1.62,2.48,7.34,7.34,0,0,0,2.48,1.62,8.24,8.24,0,0,0,3.1.57,7.59,7.59,0,0,0,4.2-1.1,9,9,0,0,0,2.15-2L66.49,15.6a4.62,4.62,0,0,1-1.17,1.19,3.86,3.86,0,0,1-2.22.62h-.17a4.72,4.72,0,0,1-.83-.1h0l-.21,0-.1,0a3.68,3.68,0,0,1-1.22-.62,4.08,4.08,0,0,1-.93-1.07,4.74,4.74,0,0,1-.5-1.55h11a1.47,1.47,0,0,1,0-.33,1.69,1.69,0,0,1,0-.33V13A9.83,9.83,0,0,0,69.76,9.88ZM59.33,11.17h0a3.82,3.82,0,0,1,1.72-2.24l.21-.12h0a3.78,3.78,0,0,1,1.65-.36,4.3,4.3,0,0,1,1.55.26,3.47,3.47,0,0,1,1.07.69,3.42,3.42,0,0,1,.67.91,3.64,3.64,0,0,1,.21.6,1.2,1.2,0,0,1,0,.29H59.33Z"/><path class="cls-1" d="M5.63,0A5.64,5.64,0,0,0,0,5.63V20.54H4.22V12.45H9.38V8.59H4.22V5.68A1.81,1.81,0,0,1,6,3.86h4.77V0Z"/><path class="cls-1" d="M47.07,8.4c-1.17-.33-2.93-1-2.89-2.46a2.15,2.15,0,0,1,2.43-2,3.08,3.08,0,0,1,2.7,1.72l3.24-2.1A7,7,0,0,0,46.64.12C43.56.12,40.27,2,40.2,6s3.84,5.44,5.89,5.94c1.41.36,3.22,1.12,3.1,3,0,1.31-1.15,2.15-2.72,2.12a3.85,3.85,0,0,1-3.6-2.53l-3.24,2.1a7.36,7.36,0,0,0,7,4.25c3.2,0,6.32-1.84,6.49-5.75C53.32,10.66,50.15,9.18,47.07,8.4Z"/><path class="cls-1" d="M77.39,15.08V8.64h2.17V5.44H77.39V1.55H73.48V5.44H72V8.66h1.43v6.51c-.14,4,3,5.42,6.61,4.8V16.56C78.37,16.8,77.39,16.06,77.39,15.08Z"/><path class="cls-1" d="M20,17.22a4.15,4.15,0,0,1,0-8.3A4.09,4.09,0,0,1,22,9.47l1.81-3.15a7.65,7.65,0,0,0-3.89-1,7.78,7.78,0,1,0,5.51,13.26L22.93,16A4.22,4.22,0,0,1,20,17.22Z"/><path class="cls-1" d="M24.14,13a4.27,4.27,0,0,1-.55,2.08L26.72,17a7.71,7.71,0,0,0,1-3.89,7.79,7.79,0,0,0-2.29-5.51l-2.55,2.55A4.21,4.21,0,0,1,24.14,13Z"/></g></g></svg>