<?xml version="1.0" encoding="utf-8"?>
<!-- Generator: Adobe Illustrator 21.0.0, SVG Export Plug-In . SVG Version: 6.00 Build 0)  -->
<svg version="1.1" id="Layer_1" xmlns="http://www.w3.org/2000/svg" xmlns:xlink="http://www.w3.org/1999/xlink" x="0px" y="0px"
	 viewBox="0 0 393.3 501.7" style="enable-background:new 0 0 393.3 501.7;" xml:space="preserve">
<style type="text/css">
	.st0{fill:#94D9B8;}
	.st1{clip-path:url(#SVGID_2_);}
	.st2{fill:url(#path36_1_);}
	.st3{clip-path:url(#SVGID_4_);}
	.st4{fill:url(#path56_1_);}
	.st5{clip-path:url(#SVGID_6_);}
	.st6{fill:url(#path80_1_);}
	.st7{clip-path:url(#SVGID_8_);}
	.st8{fill:url(#path114_1_);}
	.st9{fill:url(#path134_1_);}
	.st10{fill:url(#path154_1_);}
	.st11{fill:url(#path174_1_);}
	.st12{fill:#8DD369;}
	.st13{fill:url(#path204_1_);}
	.st14{fill:url(#path240_1_);}
	.st15{fill:url(#path266_1_);}
	.st16{fill:url(#path296_1_);}
	.st17{fill:#4CBB9F;}
	.st18{fill:url(#path324_1_);}
	.st19{fill:url(#path352_1_);}
	.st20{fill:#47BCB8;}
	.st21{fill:url(#path376_1_);}
	.st22{fill:url(#path396_1_);}
	.st23{fill:url(#path420_1_);}
	.st24{fill:url(#path440_1_);}
	.st25{fill:url(#path472_1_);}
	.st26{fill:#231F20;}
</style>
<g>
	<g id="g14" transform="translate(48.9547,84.8404)">
		<path id="path16" class="st0" d="M50.6,183.9l37.7,70.3l62.2-65.9L50.6,183.9z"/>
	</g>
	<g id="g18">
		<g>
			<defs>
				<polygon id="SVGID_1_" points="101.4,278.8 127.2,380.5 135.3,341.9 				"/>
			</defs>
			<clipPath id="SVGID_2_">
				<use xlink:href="#SVGID_1_"  style="overflow:visible;"/>
			</clipPath>
			<g id="g20" class="st1">
				<g id="g26">
					<g id="g28">
						
							<linearGradient id="path36_1_" gradientUnits="userSpaceOnUse" x1="-205.5336" y1="556.8065" x2="-203.5392" y2="556.8065" gradientTransform="matrix(15.5119 1.6186 -1.6186 15.5119 4186.8052 -7976.5684)">
							<stop  offset="0" style="stop-color:#C3E7A5"/>
							<stop  offset="1" style="stop-color:#57C6B6"/>
						</linearGradient>
						<path id="path36" class="st2" d="M101.4,278.8l25.8,101.7l8-38.6L101.4,278.8z"/>
					</g>
				</g>
			</g>
		</g>
	</g>
	<g id="g38">
		<g>
			<defs>
				<polygon id="SVGID_3_" points="53.9,201.8 120.4,366 95.5,267.7 				"/>
			</defs>
			<clipPath id="SVGID_4_">
				<use xlink:href="#SVGID_3_"  style="overflow:visible;"/>
			</clipPath>
			<g id="g40" class="st3">
				<g id="g46">
					<g id="g48">
						
							<linearGradient id="path56_1_" gradientUnits="userSpaceOnUse" x1="-222.9833" y1="543.8972" x2="-220.989" y2="543.8972" gradientTransform="matrix(-30.0315 70.5437 -70.5437 -30.0315 31787.918 32280.3496)">
							<stop  offset="0" style="stop-color:#C3E7A5"/>
							<stop  offset="1" style="stop-color:#4CBB9F"/>
						</linearGradient>
						<path id="path56" class="st4" d="M53.9,201.8L120.4,366l-24.9-98.2L53.9,201.8z"/>
					</g>
				</g>
			</g>
		</g>
	</g>
	<g id="g58">
		<g>
			<defs>
				<polygon id="SVGID_5_" points="63.3,141.5 51.5,175.4 64.3,156.1 				"/>
			</defs>
			<clipPath id="SVGID_6_">
				<use xlink:href="#SVGID_5_"  style="overflow:visible;"/>
			</clipPath>
			<g id="g60" class="st5">
				<g id="g66">
					<g id="g68">
						
							<linearGradient id="path80_1_" gradientUnits="userSpaceOnUse" x1="-223.9485" y1="538.6393" x2="-221.9541" y2="538.6393" gradientTransform="matrix(-10.9312 25.6774 -25.6774 -10.9312 11452.1045 11774.3105)">
							<stop  offset="0" style="stop-color:#EBF278"/>
							<stop  offset="0.1626" style="stop-color:#EBF278"/>
							<stop  offset="0.5487" style="stop-color:#A3D88A"/>
							<stop  offset="1" style="stop-color:#4CBB9F"/>
						</linearGradient>
						<path id="path80" class="st6" d="M63.3,141.5l-11.9,34l12.8-19.3L63.3,141.5z"/>
					</g>
				</g>
			</g>
		</g>
	</g>
	<g id="g82">
		<g>
			<defs>
				<polygon id="SVGID_7_" points="47.8,186.5 92.6,257.4 65.2,160.2 				"/>
			</defs>
			<clipPath id="SVGID_8_">
				<use xlink:href="#SVGID_7_"  style="overflow:visible;"/>
			</clipPath>
			<g id="g84" class="st7">
				<g id="g90">
					<g id="g92">
						
							<linearGradient id="path114_1_" gradientUnits="userSpaceOnUse" x1="-223.3634" y1="541.6711" x2="-221.3691" y2="541.6711" gradientTransform="matrix(-17.5832 41.3028 -41.3028 -17.5832 18538.166 18918.0215)">
							<stop  offset="0" style="stop-color:#EBF278"/>
							<stop  offset="0.2208" style="stop-color:#E8F179"/>
							<stop  offset="0.3788" style="stop-color:#E0EF7C"/>
							<stop  offset="0.5172" style="stop-color:#D1E87F"/>
							<stop  offset="0.6444" style="stop-color:#BAE086"/>
							<stop  offset="0.7638" style="stop-color:#9ED68C"/>
							<stop  offset="0.8775" style="stop-color:#7ACA95"/>
							<stop  offset="0.9847" style="stop-color:#52BC9D"/>
							<stop  offset="1" style="stop-color:#4CBB9F"/>
						</linearGradient>
						<path id="path114" class="st8" d="M47.8,186.5l44.7,70.9l-27.3-97.2L47.8,186.5z"/>
					</g>
				</g>
			</g>
		</g>
	</g>
	<g id="g116">
		<g id="g118">
			<g id="g124">
				<g id="g126">
					
						<linearGradient id="path134_1_" gradientUnits="userSpaceOnUse" x1="-206.9771" y1="546.9803" x2="-204.9827" y2="546.9803" gradientTransform="matrix(14.6874 7.3208 -7.3208 14.6874 7109.957 -6316.5938)">
						<stop  offset="0" style="stop-color:#8CD369"/>
						<stop  offset="1" style="stop-color:#67C881"/>
					</linearGradient>
					<path id="path134" class="st9" d="M68.4,160.1l28.2,100.4l14.2-72.6L68.4,160.1z"/>
				</g>
			</g>
		</g>
	</g>
	<g id="g136">
		<g id="g138">
			<g id="g144">
				<g id="g146">
					
						<linearGradient id="path154_1_" gradientUnits="userSpaceOnUse" x1="-223.5243" y1="558.8963" x2="-221.53" y2="558.8963" gradientTransform="matrix(6.9742 -22.7947 22.7947 6.9742 -11091.3105 -8825.1162)">
						<stop  offset="0" style="stop-color:#A8D157"/>
						<stop  offset="1" style="stop-color:#8CD369"/>
					</linearGradient>
					<path id="path154" class="st10" d="M94.3,110.7l-26.4,45.4l42.3,27.7L94.3,110.7z"/>
				</g>
			</g>
		</g>
	</g>
	<g id="g156">
		<g id="g158">
			<g id="g164">
				<g id="g166">
					
						<linearGradient id="path174_1_" gradientUnits="userSpaceOnUse" x1="-224.2291" y1="543.4824" x2="-222.2348" y2="543.4824" gradientTransform="matrix(-23.7413 55.768 -55.768 -23.7413 25095.5762 25456.3535)">
						<stop  offset="0" style="stop-color:#A8D157"/>
						<stop  offset="1" style="stop-color:#8CD369"/>
					</linearGradient>
					<path id="path174" class="st11" d="M95.9,76.2l-30,58l1.2,17.5L93.5,106L95.9,76.2z"/>
				</g>
			</g>
		</g>
	</g>
	<g id="g176" transform="translate(68.2947,166.3623)">
		<path id="path178" class="st12" d="M82.6-114.4L31.7-95.6l-3.1,31.8L82.6-114.4z"/>
	</g>
	<g id="g180">
		<g id="g182">
			<g id="g188">
				<g id="g190">
					
						<linearGradient id="path204_1_" gradientUnits="userSpaceOnUse" x1="-196.5146" y1="529.7026" x2="-194.5203" y2="529.7026" gradientTransform="matrix(6.4673 5.5133 -5.5133 6.4673 4317.1289 -2295.6213)">
						<stop  offset="0" style="stop-color:#F2F6A4"/>
						<stop  offset="4.760000e-02" style="stop-color:#F0F59E"/>
						<stop  offset="0.4832" style="stop-color:#E0EE6F"/>
						<stop  offset="0.8143" style="stop-color:#D6E956"/>
						<stop  offset="1" style="stop-color:#D2E84B"/>
					</linearGradient>
					<path id="path204" class="st13" d="M149.9,40.3l-37,22.4l42.1-15.5L149.9,40.3z"/>
				</g>
			</g>
		</g>
	</g>
	<g id="g206">
		<g id="g208">
			<g id="g214">
				<g id="g216">
					
						<linearGradient id="path240_1_" gradientUnits="userSpaceOnUse" x1="-216.0591" y1="563.5715" x2="-214.0647" y2="563.5715" gradientTransform="matrix(8.5054 -14.5417 14.5417 8.5054 -6191.7295 -7879.563)">
						<stop  offset="0" style="stop-color:#F8FACC"/>
						<stop  offset="3.350000e-02" style="stop-color:#F4F8BF"/>
						<stop  offset="0.1328" style="stop-color:#E9F398"/>
						<stop  offset="0.2365" style="stop-color:#E2EF7B"/>
						<stop  offset="0.344" style="stop-color:#DAEC66"/>
						<stop  offset="0.457" style="stop-color:#D6EA59"/>
						<stop  offset="0.579" style="stop-color:#D3E84E"/>
						<stop  offset="0.7267" style="stop-color:#D2E84B"/>
						<stop  offset="0.7653" style="stop-color:#D2E84B"/>
						<stop  offset="1" style="stop-color:#D2E84B"/>
					</linearGradient>
					<path id="path240" class="st14" d="M214.8,11.4l-62.2,27.5l5.3,7L214.8,11.4z"/>
				</g>
			</g>
		</g>
	</g>
	<g id="g242">
		<g id="g244">
			<g id="g250">
				<g id="g252">
					
						<linearGradient id="path266_1_" gradientUnits="userSpaceOnUse" x1="-225.1386" y1="540.6035" x2="-223.1442" y2="540.6035" gradientTransform="matrix(-15.3996 36.1735 -36.1735 -15.3996 16250.5625 16518.9473)">
						<stop  offset="0" style="stop-color:#C3E7A5"/>
						<stop  offset="0.2013" style="stop-color:#BDE59E"/>
						<stop  offset="0.5096" style="stop-color:#AEE08C"/>
						<stop  offset="0.8845" style="stop-color:#94D671"/>
						<stop  offset="1" style="stop-color:#8CD369"/>
					</linearGradient>
					<path id="path266" class="st15" d="M156.7,50.8l-58.4,54.6l75.9,9.8L156.7,50.8z"/>
				</g>
			</g>
		</g>
	</g>
	<g id="g268">
		<g id="g270">
			<g id="g276">
				<g id="g278">
					
						<linearGradient id="path296_1_" gradientUnits="userSpaceOnUse" x1="-230.843" y1="543.0153" x2="-228.8487" y2="543.0153" gradientTransform="matrix(-30.7658 8.9798 -8.9798 -30.7658 -2074.5791 18911.8281)">
						<stop  offset="0" style="stop-color:#C3E7A5"/>
						<stop  offset="0.1797" style="stop-color:#C2E7A1"/>
						<stop  offset="0.3649" style="stop-color:#C0E695"/>
						<stop  offset="0.5528" style="stop-color:#BEE482"/>
						<stop  offset="0.7425" style="stop-color:#BAE26B"/>
						<stop  offset="0.9318" style="stop-color:#B3DE4B"/>
						<stop  offset="1" style="stop-color:#B1DD3D"/>
					</linearGradient>
					<path id="path296" class="st16" d="M96.9,108.3l16.4,75.6l59.9-65.7L96.9,108.3z"/>
				</g>
			</g>
		</g>
	</g>
	<g id="g298" transform="translate(86.9633,85.3147)">
		<path id="path300" class="st0" d="M113.6,182.2L88.5,35l-60.8,66.6L113.6,182.2z"/>
	</g>
	<g id="g302" transform="translate(48.6593,86.0093)">
		<path id="path304" class="st17" d="M50.1,179.6l100.1,4.4l-85.3-79.9L50.1,179.6z"/>
	</g>
	<g id="g306">
		<g id="g308">
			<g id="g314">
				<g id="g316">
					
						<linearGradient id="path324_1_" gradientUnits="userSpaceOnUse" x1="-224.8497" y1="542.4918" x2="-222.8553" y2="542.4918" gradientTransform="matrix(-25.6683 60.2945 -60.2945 -25.6683 27242.3867 27511.5742)">
						<stop  offset="0" style="stop-color:#57C6B6"/>
						<stop  offset="1" style="stop-color:#3A80C9"/>
					</linearGradient>
					<path id="path324" class="st18" d="M345,144.1L236.3,3.2l-57.6,112.6L345,144.1z"/>
				</g>
			</g>
		</g>
	</g>
	<g id="g326">
		<g id="g328">
			<g id="g334">
				<g id="g336">
					
						<linearGradient id="path352_1_" gradientUnits="userSpaceOnUse" x1="-224.8498" y1="543.2626" x2="-222.8554" y2="543.2626" gradientTransform="matrix(-25.6675 60.2926 -60.2926 -25.6675 27194.7871 27490.8125)">
						<stop  offset="0" style="stop-color:#C3E7A5"/>
						<stop  offset="4.880000e-02" style="stop-color:#BEE69E"/>
						<stop  offset="0.2986" style="stop-color:#A7DC84"/>
						<stop  offset="0.5441" style="stop-color:#97D776"/>
						<stop  offset="0.781" style="stop-color:#8FD46C"/>
						<stop  offset="1" style="stop-color:#8CD369"/>
					</linearGradient>
					<path id="path352" class="st19" d="M232.2,4.5l-72.9,44.1l17.5,64.2L232.2,4.5z"/>
				</g>
			</g>
		</g>
	</g>
	<g id="g354" transform="translate(141.3208,130.5289)">
		<path id="path356" class="st20" d="M203.8,16.7L37-11.6l25.6,149.9L203.8,16.7z"/>
	</g>
	<g id="g358">
		<g id="g360">
			<g id="g366">
				<g id="g368">
					
						<linearGradient id="path376_1_" gradientUnits="userSpaceOnUse" x1="-225.8169" y1="540.9747" x2="-223.8225" y2="540.9747" gradientTransform="matrix(-33.0257 40.7754 -40.7754 -33.0257 14918.1328 27273.5723)">
						<stop  offset="0" style="stop-color:#3B8EBD"/>
						<stop  offset="1" style="stop-color:#336AB5"/>
					</linearGradient>
					<path id="path376" class="st21" d="M282.4,309.5l62.5-158L205.6,271.4L282.4,309.5z"/>
				</g>
			</g>
		</g>
	</g>
	<g id="g378">
		<g id="g380">
			<g id="g386">
				<g id="g388">
					
						<linearGradient id="path396_1_" gradientUnits="userSpaceOnUse" x1="-210.0572" y1="544.9863" x2="-208.0628" y2="544.9863" gradientTransform="matrix(17.863 17.616 -17.616 17.863 13494.7275 -5686.6533)">
						<stop  offset="0" style="stop-color:#C3E7A5"/>
						<stop  offset="1" style="stop-color:#57C6B6"/>
					</linearGradient>
					<path id="path396" class="st22" d="M129.3,385.7l97.5-4.1L138,343.8L129.3,385.7z"/>
				</g>
			</g>
		</g>
	</g>
	<g id="g398" transform="translate(116.2701,68.9445)">
		<path id="path400" class="st20" d="M162.2,242.1l-75.3-37.4L25,270.2L162.2,242.1z"/>
	</g>
	<g id="g402">
		<g id="g404">
			<g id="g410">
				<g id="g412">
					
						<linearGradient id="path420_1_" gradientUnits="userSpaceOnUse" x1="-222.1132" y1="539.3466" x2="-220.1188" y2="539.3466" gradientTransform="matrix(-16.6844 39.1916 -39.1916 -16.6844 17639.9355 18038.627)">
						<stop  offset="0" style="stop-color:#40A1C6"/>
						<stop  offset="1" style="stop-color:#57C6B6"/>
					</linearGradient>
					<path id="path420" class="st23" d="M233.1,381l46.6-67.1L142,342.2L233.1,381z"/>
				</g>
			</g>
		</g>
	</g>
	<g id="g422">
		<g id="g424">
			<g id="g430">
				<g id="g432">
					
						<linearGradient id="path440_1_" gradientUnits="userSpaceOnUse" x1="-208.6677" y1="533.7353" x2="-206.6734" y2="533.7353" gradientTransform="matrix(6.7097 17.2775 -17.2775 6.7097 10880.9561 320.0431)">
						<stop  offset="0" style="stop-color:#58C6B5"/>
						<stop  offset="1" style="stop-color:#3B7DC9"/>
					</linearGradient>
					<path id="path440" class="st24" d="M237.3,380.3l21.8-5.9l48.8-93.6l-23.5,31.8L237.3,380.3z"/>
				</g>
			</g>
		</g>
	</g>
	<g id="g442">
		<g id="g444">
			<g id="g450">
				<g id="g452">
					
						<linearGradient id="path472_1_" gradientUnits="userSpaceOnUse" x1="-178.4626" y1="533.2254" x2="-176.4683" y2="533.2254" gradientTransform="matrix(6.6144 4.952 -4.952 6.6144 4138.7998 -2405.6504)">
						<stop  offset="0" style="stop-color:#4EB4E8"/>
						<stop  offset="0.1576" style="stop-color:#4EB4E8"/>
						<stop  offset="0.4019" style="stop-color:#4DB2E7"/>
						<stop  offset="0.5614" style="stop-color:#4AACE2"/>
						<stop  offset="0.6966" style="stop-color:#47A2DB"/>
						<stop  offset="0.8183" style="stop-color:#4293D2"/>
						<stop  offset="0.9299" style="stop-color:#3B81C6"/>
						<stop  offset="1" style="stop-color:#3775BD"/>
					</linearGradient>
					<path id="path472" class="st25" d="M316.9,263.4l24.1-93.8l-52.1,131.7L316.9,263.4z"/>
				</g>
			</g>
		</g>
	</g>
</g>
<g>
	<g>
		<path class="st26" d="M2.6,444.5c0-1.4,0.1-2.6,0.4-3.6c0.3-1,0.7-1.8,1.4-2.4c0.6-0.6,1.5-1,2.5-1.3c1-0.3,2.3-0.4,3.8-0.4h2.7
			c2.8,0,4.8,0.5,6.1,1.4c1.3,1,2,2.4,2,4.5v1.2h-3v-0.6c0-0.7-0.1-1.3-0.2-1.8c-0.2-0.5-0.4-0.8-0.8-1.1c-0.4-0.3-0.9-0.5-1.6-0.6
			c-0.7-0.1-1.5-0.2-2.5-0.2h-1.9c-0.8,0-1.4,0-1.9,0.1c-0.5,0-0.9,0.1-1.3,0.2c-0.3,0.1-0.6,0.2-0.8,0.3c-0.2,0.1-0.4,0.3-0.6,0.5
			c-0.2,0.2-0.4,0.4-0.5,0.6c-0.1,0.2-0.2,0.5-0.3,0.7v0c-0.1,0.3-0.1,0.7-0.2,1.2c0,0.5-0.1,1.2-0.1,2v6.2c0,0.8,0,1.4,0.1,1.9
			c0,0.5,0.1,0.9,0.2,1.2v0c0.2,0.6,0.5,1.1,0.9,1.4c0.4,0.3,0.9,0.5,1.4,0.7c0.6,0.2,1.6,0.2,3.1,0.2h1.9c0.7,0,1.3,0,1.7,0
			c0.5,0,0.8-0.1,1.1-0.1c0.3-0.1,0.6-0.2,0.8-0.3c0.2-0.1,0.4-0.3,0.6-0.4c0.2-0.2,0.3-0.3,0.5-0.5c0.1-0.2,0.2-0.4,0.3-0.7
			c0.1-0.3,0.1-0.7,0.2-1.1c0-0.4,0-1,0-1.7v-1h-6V448h9v3.9c0,1.4-0.1,2.6-0.4,3.6c-0.3,1-0.7,1.8-1.4,2.4c-0.6,0.6-1.5,1-2.5,1.3
			c-1,0.3-2.3,0.4-3.8,0.4h-2.7c-1.5,0-2.8-0.1-3.8-0.4c-1-0.3-1.9-0.7-2.5-1.3c-0.6-0.6-1.1-1.4-1.4-2.4c-0.3-1-0.4-2.2-0.4-3.6
			L2.6,444.5L2.6,444.5z"/>
		<polygon class="st26" points="25.8,459.3 25.8,437.1 41.6,437.1 41.6,440 28.8,440 28.8,446.5 41.2,446.5 41.2,449.3 28.8,449.3 
			28.8,456.4 41.6,456.4 41.6,459.3 		"/>
		<path class="st26" d="M44.7,444.5c0-1.4,0.1-2.6,0.4-3.6c0.3-1,0.7-1.8,1.4-2.4c0.6-0.6,1.5-1,2.5-1.3c1-0.3,2.3-0.4,3.8-0.4h2.7
			c3,0,5.1,0.6,6.3,1.7v0c1.2,1.1,1.8,3.1,1.8,6v7.3c0,1.4-0.1,2.6-0.4,3.6c-0.3,1-0.7,1.8-1.4,2.4c-0.6,0.6-1.5,1-2.5,1.3
			c-1,0.3-2.3,0.4-3.8,0.4h-2.7c-1.5,0-2.8-0.1-3.8-0.4c-1-0.3-1.9-0.7-2.5-1.3c-0.6-0.6-1.1-1.4-1.4-2.4c-0.3-1-0.4-2.2-0.4-3.6
			L44.7,444.5L44.7,444.5z M53.5,439.7c-0.8,0-1.4,0-1.9,0.1c-0.5,0-0.9,0.1-1.2,0.2c-0.3,0.1-0.6,0.2-0.8,0.3
			c-0.2,0.1-0.4,0.3-0.7,0.5c-0.2,0.2-0.4,0.4-0.5,0.6c-0.1,0.2-0.2,0.5-0.3,0.8c-0.1,0.3-0.1,0.7-0.2,1.2c0,0.5-0.1,1.1-0.1,1.9
			v6.1c0,0.7,0,1.3,0.1,1.8c0,0.5,0.1,0.9,0.2,1.2c0.1,0.3,0.2,0.6,0.3,0.8c0.1,0.2,0.3,0.4,0.5,0.6c0.2,0.2,0.4,0.4,0.7,0.5
			c0.2,0.1,0.5,0.2,0.9,0.3c0.3,0.1,0.8,0.1,1.3,0.2c0.5,0,1.1,0,1.9,0h1.3c0.8,0,1.4,0,1.9,0c0.5,0,0.9-0.1,1.3-0.2
			c0.3-0.1,0.6-0.2,0.9-0.3c0.2-0.1,0.4-0.3,0.7-0.5c0.2-0.2,0.4-0.4,0.5-0.6c0.1-0.2,0.2-0.5,0.3-0.8c0.1-0.3,0.1-0.7,0.2-1.2
			c0-0.5,0-1.1,0-1.9v-6.2c0-0.8,0-1.4-0.1-1.9s-0.1-0.9-0.2-1.2c-0.1-0.3-0.2-0.6-0.3-0.8c-0.1-0.2-0.3-0.4-0.5-0.6
			c-0.2-0.2-0.4-0.3-0.6-0.5c-0.2-0.1-0.5-0.2-0.8-0.3c-0.3-0.1-0.8-0.1-1.3-0.2c-0.5,0-1.1-0.1-1.9-0.1L53.5,439.7L53.5,439.7z"/>
		<path class="st26" d="M68.2,459.3v-22.2h10.1c1.3,0,2.3,0.1,3.2,0.3c0.9,0.2,1.5,0.5,2.1,0.9c0.5,0.4,0.9,1,1.1,1.6
			c0.2,0.7,0.3,1.5,0.3,2.4v3.3c0,2-0.7,3.3-2.1,3.9c0.4,0.2,0.7,0.4,0.9,0.6c0.3,0.2,0.5,0.5,0.6,0.9c0.2,0.3,0.3,0.7,0.4,1.2
			c0.1,0.5,0.1,1,0.1,1.7v5.5h-3.1v-4.7c0-0.8,0-1.4-0.1-1.8s-0.3-0.9-0.5-1.1c-0.2-0.3-0.6-0.5-1-0.6c-0.4-0.1-1-0.1-1.6-0.1h-7.4
			v8.4L68.2,459.3L68.2,459.3z M71.2,440v8.1h6.6c0.9,0,1.6,0,2.1-0.1c0.5-0.1,1-0.2,1.2-0.5c0.3-0.2,0.5-0.5,0.6-0.9
			c0.1-0.4,0.1-0.8,0.1-1.3v-2.5c0-0.5,0-1-0.1-1.3c-0.1-0.4-0.3-0.6-0.6-0.9c-0.3-0.2-0.7-0.4-1.2-0.5c-0.5-0.1-1.2-0.1-2.1-0.1
			C77.8,440,71.2,440,71.2,440z"/>
		<path class="st26" d="M88.8,444.5c0-1.4,0.1-2.6,0.4-3.6c0.3-1,0.7-1.8,1.4-2.4c0.6-0.6,1.5-1,2.5-1.3c1-0.3,2.3-0.4,3.8-0.4h2.7
			c2.8,0,4.8,0.5,6.1,1.4c1.3,1,2,2.4,2,4.5v1.2h-3v-0.6c0-0.7-0.1-1.3-0.2-1.8c-0.2-0.5-0.4-0.8-0.8-1.1c-0.4-0.3-0.9-0.5-1.6-0.6
			c-0.7-0.1-1.5-0.2-2.5-0.2h-1.9c-0.8,0-1.4,0-1.9,0.1c-0.5,0-0.9,0.1-1.3,0.2c-0.3,0.1-0.6,0.2-0.8,0.3c-0.2,0.1-0.4,0.3-0.6,0.5
			c-0.2,0.2-0.3,0.4-0.5,0.6c-0.1,0.2-0.2,0.5-0.3,0.7v0c-0.1,0.3-0.1,0.7-0.2,1.2c0,0.5-0.1,1.2-0.1,2v6.2c0,0.8,0,1.4,0.1,1.9
			c0,0.5,0.1,0.9,0.2,1.2v0c0.2,0.6,0.5,1.1,0.9,1.4c0.4,0.3,0.9,0.5,1.4,0.7c0.6,0.2,1.6,0.2,3.2,0.2h1.9c0.7,0,1.3,0,1.7,0
			s0.8-0.1,1.1-0.1c0.3-0.1,0.6-0.2,0.8-0.3c0.2-0.1,0.4-0.3,0.6-0.4c0.2-0.2,0.3-0.3,0.5-0.5c0.1-0.2,0.2-0.4,0.3-0.7
			c0.1-0.3,0.1-0.7,0.2-1.1c0-0.4,0-1,0-1.7v-1h-6V448h9v3.9c0,1.4-0.1,2.6-0.4,3.6c-0.3,1-0.7,1.8-1.4,2.4c-0.6,0.6-1.5,1-2.5,1.3
			c-1,0.3-2.3,0.4-3.8,0.4h-2.7c-1.5,0-2.8-0.1-3.8-0.4c-1-0.3-1.9-0.7-2.5-1.3c-0.6-0.6-1.1-1.4-1.4-2.4c-0.3-1-0.4-2.2-0.4-3.6
			L88.8,444.5L88.8,444.5z"/>
		<rect x="111.8" y="437.1" class="st26" width="3" height="22.2"/>
		<path class="st26" d="M117.5,459.3l8.2-22.2h4.4l8.3,22.2h-3.1l-2.1-5.5h-10.5c-0.3,0.9-0.7,1.8-1,2.8c-0.4,0.9-0.7,1.9-1,2.8
			L117.5,459.3L117.5,459.3z M123.6,451h8.5c-0.7-1.9-1.4-3.7-2-5.5c-0.7-1.8-1.4-3.7-2.1-5.5h-0.4L123.6,451z"/>
		<path class="st26" d="M136.1,440.7v-3.6h3v3.9c0,0.8-0.2,1.5-0.8,1.9c-0.5,0.4-1.2,0.7-2.2,0.7v-1.8c0.3,0,0.6-0.1,0.7-0.2
			c0.2-0.1,0.2-0.3,0.2-0.5v-0.3L136.1,440.7L136.1,440.7z"/>
		<path class="st26" d="M141.6,451.7h3v0.7c0,0.9,0,1.6,0.1,2.1c0.1,0.5,0.2,0.9,0.4,1.2c0.2,0.3,0.5,0.5,0.8,0.6s0.8,0.2,1.3,0.3
			c0.4,0,0.9,0.1,1.7,0.1c0.7,0,1.7,0,2.8,0c1.2,0,2.1-0.1,2.7-0.2c0.6-0.1,1.1-0.4,1.4-0.7c0.2-0.2,0.3-0.5,0.4-0.9
			c0.1-0.4,0.1-1,0.1-1.8c0-0.8,0-1.4-0.1-1.8c-0.1-0.4-0.2-0.8-0.3-1c-0.2-0.2-0.4-0.4-0.7-0.5c-0.3-0.1-0.6-0.1-1.1-0.2l-6.7-0.5
			c-1-0.1-1.9-0.2-2.6-0.5c-0.7-0.3-1.3-0.6-1.7-1.1c-0.4-0.5-0.7-1.1-0.9-1.8c-0.2-0.7-0.3-1.6-0.3-2.7c0-1.8,0.3-3.1,0.9-4.1
			c0.6-1,1.5-1.6,2.8-1.9c0.4-0.1,0.9-0.1,1.6-0.2c0.7,0,1.6-0.1,2.6-0.1h0.8c1.2,0,2.1,0,2.9,0.1c0.8,0.1,1.4,0.1,1.9,0.3
			c0.5,0.1,1,0.3,1.3,0.5c0.3,0.2,0.7,0.4,1,0.7c0.4,0.4,0.8,0.9,1,1.6c0.2,0.7,0.3,1.5,0.3,2.5c0,0.3,0,0.5,0,0.8
			c0,0.2,0,0.4,0,0.5h-3v-0.8c0-0.7,0-1.2-0.1-1.6c-0.1-0.4-0.2-0.7-0.3-0.9c-0.2-0.2-0.4-0.3-0.6-0.4c-0.3-0.1-0.6-0.1-0.9-0.2
			c-0.8-0.1-2.2-0.2-4.3-0.2c-2.2,0-3.5,0.2-4,0.7c-0.3,0.2-0.4,0.6-0.6,1.1c-0.1,0.5-0.2,1.1-0.2,1.7c0,0.6,0,1.1,0.1,1.5
			c0.1,0.4,0.2,0.7,0.4,0.9v0c0.2,0.2,0.4,0.4,0.7,0.5c0.3,0.1,0.7,0.2,1.2,0.2l6.8,0.6c0.9,0.1,1.7,0.2,2.4,0.5
			c0.6,0.3,1.2,0.6,1.6,1.1c0.4,0.5,0.7,1.1,0.9,1.8s0.3,1.6,0.3,2.5c0,0.7,0,1.4-0.1,1.9c0,0.5-0.1,1-0.2,1.4
			c-0.1,0.4-0.2,0.7-0.4,1c-0.2,0.3-0.3,0.6-0.6,0.8c-0.3,0.3-0.6,0.6-0.9,0.8c-0.3,0.2-0.8,0.4-1.3,0.5c-0.5,0.1-1.2,0.2-2,0.3
			c-0.8,0.1-1.8,0.1-3,0.1h-1.1c-1,0-1.9,0-2.6-0.1c-0.7,0-1.3-0.1-1.8-0.2c-0.5-0.1-0.9-0.3-1.2-0.4c-0.3-0.2-0.7-0.4-0.9-0.7h0
			c-0.6-0.5-1-1.1-1.3-2c-0.3-0.8-0.4-1.9-0.4-3.2L141.6,451.7L141.6,451.7z"/>
		<rect x="174.4" y="437.1" class="st26" width="3" height="22.2"/>
		<polygon class="st26" points="182.5,459.3 182.5,437.1 186.6,437.1 197.9,455.7 197.9,437.1 200.9,437.1 200.9,459.3 196.7,459.3 
			185.5,440.7 185.5,459.3 		"/>
		<polygon class="st26" points="206.2,459.3 206.2,437.1 210.3,437.1 221.6,455.7 221.6,437.1 224.6,437.1 224.6,459.3 220.4,459.3 
			209.2,440.7 209.2,459.3 		"/>
		<path class="st26" d="M229.2,444.5c0-1.4,0.1-2.6,0.4-3.6c0.3-1,0.7-1.8,1.4-2.4c0.6-0.6,1.5-1,2.5-1.3c1-0.3,2.3-0.4,3.8-0.4h2.7
			c3,0,5.1,0.6,6.3,1.7v0c1.2,1.1,1.8,3.1,1.8,6v7.3c0,1.4-0.1,2.6-0.4,3.6c-0.3,1-0.7,1.8-1.4,2.4c-0.6,0.6-1.5,1-2.5,1.3
			c-1,0.3-2.3,0.4-3.8,0.4h-2.7c-1.5,0-2.8-0.1-3.8-0.4c-1-0.3-1.9-0.7-2.5-1.3c-0.6-0.6-1.1-1.4-1.4-2.4c-0.3-1-0.4-2.2-0.4-3.6
			L229.2,444.5L229.2,444.5z M238,439.7c-0.8,0-1.4,0-1.9,0.1c-0.5,0-0.9,0.1-1.2,0.2c-0.3,0.1-0.6,0.2-0.8,0.3
			c-0.2,0.1-0.4,0.3-0.7,0.5c-0.2,0.2-0.4,0.4-0.5,0.6c-0.1,0.2-0.2,0.5-0.3,0.8c-0.1,0.3-0.1,0.7-0.2,1.2c0,0.5-0.1,1.1-0.1,1.9
			v6.1c0,0.7,0,1.3,0.1,1.8c0,0.5,0.1,0.9,0.2,1.2c0.1,0.3,0.2,0.6,0.3,0.8c0.1,0.2,0.3,0.4,0.5,0.6c0.2,0.2,0.4,0.4,0.7,0.5
			c0.2,0.1,0.5,0.2,0.9,0.3c0.3,0.1,0.8,0.1,1.3,0.2c0.5,0,1.1,0,1.9,0h1.3c0.8,0,1.4,0,1.9,0c0.5,0,0.9-0.1,1.3-0.2
			c0.3-0.1,0.6-0.2,0.9-0.3c0.2-0.1,0.4-0.3,0.7-0.5c0.2-0.2,0.4-0.4,0.5-0.6c0.1-0.2,0.2-0.5,0.3-0.8c0.1-0.3,0.1-0.7,0.2-1.2
			c0-0.5,0-1.1,0-1.9v-6.2c0-0.8,0-1.4-0.1-1.9c0-0.5-0.1-0.9-0.2-1.2c-0.1-0.3-0.2-0.6-0.3-0.8c-0.1-0.2-0.3-0.4-0.5-0.6
			c-0.2-0.2-0.4-0.3-0.6-0.5c-0.2-0.1-0.5-0.2-0.8-0.3c-0.3-0.1-0.8-0.1-1.3-0.2c-0.5,0-1.1-0.1-1.9-0.1L238,439.7L238,439.7z"/>
		<path class="st26" d="M249.9,437.1h3.2l6.7,18.8c1.1-3.2,2.2-6.3,3.4-9.4c1.1-3.1,2.2-6.2,3.4-9.4h3.2l-8.1,22.2H258L249.9,437.1z
			"/>
		<path class="st26" d="M267.9,459.3l8.2-22.2h4.3l8.3,22.2h-3.1l-2.1-5.5h-10.5c-0.3,0.9-0.7,1.8-1,2.8c-0.4,0.9-0.7,1.9-1,2.8
			L267.9,459.3L267.9,459.3z M274.1,451h8.5c-0.7-1.9-1.4-3.7-2-5.5c-0.7-1.8-1.4-3.7-2.1-5.5h-0.4L274.1,451z"/>
		<polygon class="st26" points="287.6,440 287.6,437.1 304.4,437.1 304.4,440 297.5,440 297.5,459.3 294.5,459.3 294.5,440 		"/>
		<rect x="307.3" y="437.1" class="st26" width="3" height="22.2"/>
		<path class="st26" d="M314.7,444.5c0-1.4,0.1-2.6,0.4-3.6c0.3-1,0.7-1.8,1.4-2.4c0.6-0.6,1.5-1,2.5-1.3c1-0.3,2.3-0.4,3.8-0.4h2.7
			c3,0,5.1,0.6,6.3,1.7v0c1.2,1.1,1.8,3.1,1.8,6v7.3c0,1.4-0.1,2.6-0.4,3.6c-0.3,1-0.7,1.8-1.4,2.4c-0.6,0.6-1.5,1-2.5,1.3
			c-1,0.3-2.3,0.4-3.8,0.4h-2.7c-1.5,0-2.8-0.1-3.8-0.4c-1-0.3-1.9-0.7-2.5-1.3c-0.6-0.6-1.1-1.4-1.4-2.4c-0.3-1-0.4-2.2-0.4-3.6
			L314.7,444.5L314.7,444.5z M323.4,439.7c-0.8,0-1.4,0-1.9,0.1c-0.5,0-0.9,0.1-1.2,0.2c-0.3,0.1-0.6,0.2-0.8,0.3
			c-0.2,0.1-0.4,0.3-0.7,0.5c-0.2,0.2-0.4,0.4-0.5,0.6c-0.1,0.2-0.2,0.5-0.3,0.8c-0.1,0.3-0.1,0.7-0.2,1.2c0,0.5-0.1,1.1-0.1,1.9
			v6.1c0,0.7,0,1.3,0.1,1.8c0,0.5,0.1,0.9,0.2,1.2c0.1,0.3,0.2,0.6,0.3,0.8c0.1,0.2,0.3,0.4,0.5,0.6c0.2,0.2,0.4,0.4,0.7,0.5
			c0.2,0.1,0.5,0.2,0.9,0.3c0.3,0.1,0.8,0.1,1.3,0.2c0.5,0,1.1,0,1.9,0h1.3c0.8,0,1.4,0,1.9,0c0.5,0,0.9-0.1,1.3-0.2
			c0.3-0.1,0.6-0.2,0.9-0.3c0.2-0.1,0.4-0.3,0.7-0.5c0.2-0.2,0.4-0.4,0.5-0.6c0.1-0.2,0.2-0.5,0.3-0.8c0.1-0.3,0.1-0.7,0.2-1.2
			c0-0.5,0-1.1,0-1.9v-6.2c0-0.8,0-1.4-0.1-1.9s-0.1-0.9-0.2-1.2c-0.1-0.3-0.2-0.6-0.3-0.8c-0.1-0.2-0.3-0.4-0.5-0.6
			c-0.2-0.2-0.4-0.3-0.6-0.5c-0.2-0.1-0.5-0.2-0.8-0.3c-0.3-0.1-0.8-0.1-1.3-0.2c-0.5,0-1.1-0.1-1.9-0.1L323.4,439.7L323.4,439.7z"
			/>
		<polygon class="st26" points="338.2,459.3 338.2,437.1 342.3,437.1 353.6,455.7 353.6,437.1 356.5,437.1 356.5,459.3 352.4,459.3 
			341.1,440.7 341.1,459.3 		"/>
		<path class="st26" d="M385.2,456.8c-0.3,0.5-0.6,1-1,1.3c-0.4,0.4-0.9,0.6-1.5,0.9c-0.6,0.2-1.4,0.4-2.4,0.5
			c-1,0.1-2.1,0.1-3.6,0.1c-1,0-1.9,0-2.6-0.1c-0.7-0.1-1.3-0.2-1.8-0.3c-0.5-0.2-0.9-0.3-1.3-0.6c-0.4-0.2-0.7-0.6-1-0.9
			c-0.2-0.2-0.4-0.5-0.5-0.8c-0.2-0.3-0.3-0.7-0.4-1.1c-0.1-0.4-0.2-0.9-0.2-1.5c0-0.6-0.1-1.2-0.1-1.9c0-0.9,0.1-1.6,0.2-2.3
			c0.1-0.7,0.3-1.2,0.6-1.7c0.3-0.5,0.6-0.9,1.1-1.2c0.4-0.3,1-0.6,1.6-0.8c-0.6-0.5-1-1.1-1.2-1.8c-0.3-0.7-0.4-1.6-0.4-2.6
			c0-0.9,0.1-1.7,0.3-2.3c0.2-0.6,0.6-1.1,1.1-1.5c0.5-0.4,1.2-0.7,2.1-0.8c0.9-0.2,2-0.3,3.2-0.3c1.2,0,2.3,0.1,3.1,0.3
			c0.9,0.2,1.6,0.5,2.1,0.9c0.6,0.4,1,0.9,1.2,1.6c0.3,0.6,0.4,1.4,0.4,2.3v2.1h-3v-2c0-0.9-0.2-1.6-0.6-1.9
			c-0.2-0.2-0.6-0.3-1.1-0.4c-0.5-0.1-1.3-0.1-2.2-0.1c-0.8,0-1.4,0-1.9,0.1c-0.5,0-0.9,0.1-1.1,0.3c-0.3,0.1-0.4,0.4-0.5,0.6
			c-0.1,0.3-0.1,0.7-0.1,1.2c0,0.6,0.2,1.2,0.5,1.8c0.3,0.6,0.8,1.2,1.5,1.7l0.2,0.1c0.6,0.5,1.2,1,1.8,1.5c0.6,0.5,1.2,1,1.8,1.5
			c0.6,0.5,1.2,1,1.8,1.5c0.6,0.5,1.2,1,1.9,1.6v-2.7h3v3.5c0,0.2,0,0.5,0,0.7c0,0.3-0.1,0.6-0.1,0.9c0.7,0.6,1.4,1.2,2.1,1.8
			c0.7,0.6,1.4,1.2,2.1,1.7l-1.8,2.1L385.2,456.8z M375.1,448.3c-0.6,0-1.1,0.1-1.5,0.2c-0.4,0.1-0.7,0.3-1,0.6
			c-0.2,0.3-0.4,0.7-0.5,1.3c-0.1,0.5-0.2,1.2-0.2,2c0,0.6,0,1.1,0,1.5c0,0.4,0.1,0.7,0.1,1c0.1,0.3,0.1,0.5,0.2,0.6
			c0.1,0.1,0.2,0.3,0.4,0.4c0.1,0.1,0.3,0.2,0.6,0.3c0.2,0.1,0.5,0.2,0.9,0.2c0.7,0.1,2.1,0.2,3.9,0.2c0.7,0,1.3,0,1.9-0.1
			c0.5-0.1,1-0.2,1.4-0.3c0.4-0.2,0.7-0.4,0.9-0.6c0.2-0.2,0.4-0.5,0.5-0.9L375.1,448.3z"/>
	</g>
	<g>
		<polygon class="st26" points="23.8,479.3 23.8,476.4 40.6,476.4 40.6,479.3 33.7,479.3 33.7,498.6 30.7,498.6 30.7,479.3 		"/>
		<polygon class="st26" points="42.8,498.6 42.8,476.4 58.6,476.4 58.6,479.3 45.8,479.3 45.8,485.8 58.2,485.8 58.2,488.6 
			45.8,488.6 45.8,495.8 58.6,495.8 58.6,498.6 		"/>
		<path class="st26" d="M61.7,483.9c0-1.4,0.1-2.6,0.4-3.6c0.3-1,0.7-1.8,1.3-2.4c0.6-0.6,1.4-1,2.3-1.3c1-0.3,2.1-0.4,3.5-0.4h2.5
			c1.4,0,2.5,0.1,3.5,0.4c1,0.2,1.7,0.6,2.3,1.1c0.6,0.5,1,1.2,1.3,2c0.3,0.8,0.4,1.8,0.4,3v1.2h-3.1v-0.9c0-0.8-0.1-1.4-0.2-1.9
			c-0.1-0.5-0.4-0.9-0.7-1.2c-0.3-0.3-0.8-0.5-1.4-0.6c-0.6-0.1-1.4-0.2-2.3-0.2h-1.7c-0.6,0-1.2,0-1.6,0c-0.4,0-0.8,0.1-1.1,0.2
			c-0.3,0.1-0.6,0.2-0.8,0.3c-0.2,0.1-0.4,0.3-0.6,0.5c-0.2,0.2-0.4,0.4-0.5,0.6c-0.1,0.2-0.2,0.4-0.3,0.8c-0.1,0.3-0.1,0.7-0.1,1.2
			c0,0.5,0,1.1,0,1.9v6.2c0,0.8,0,1.4,0,1.9c0,0.5,0.1,0.9,0.1,1.2c0.1,0.3,0.2,0.6,0.3,0.8c0.1,0.2,0.3,0.4,0.5,0.6
			c0.2,0.2,0.4,0.3,0.6,0.5c0.2,0.1,0.4,0.2,0.7,0.3c0.3,0.1,0.7,0.1,1.1,0.2c0.4,0,1,0,1.7,0h1.7c1,0,1.7-0.1,2.3-0.2
			c0.6-0.1,1.1-0.3,1.4-0.7c0.3-0.3,0.6-0.8,0.7-1.3c0.1-0.6,0.2-1.3,0.2-2.1c0-0.3,0-0.5,0-0.8c0-0.2,0-0.4,0-0.6h3.1v1.7
			c0,2.5-0.6,4.2-1.7,5.2h0c-1.1,1-3,1.5-5.9,1.5h-2.5c-1.4,0-2.6-0.1-3.5-0.4c-1-0.3-1.7-0.7-2.3-1.3c-0.6-0.6-1-1.4-1.3-2.4
			c-0.3-1-0.4-2.2-0.4-3.6L61.7,483.9L61.7,483.9z"/>
		<polygon class="st26" points="83.3,498.6 83.3,476.4 86.2,476.4 86.2,485.8 98.1,485.8 98.1,476.4 101.1,476.4 101.1,498.6 
			98.1,498.6 98.1,488.6 86.2,488.6 86.2,498.6 		"/>
		<polygon class="st26" points="105.2,498.6 105.2,476.4 109.3,476.4 120.6,495 120.6,476.4 123.5,476.4 123.5,498.6 119.4,498.6 
			108.1,480 108.1,498.6 		"/>
		<path class="st26" d="M128.2,483.9c0-1.4,0.1-2.6,0.4-3.6c0.3-1,0.7-1.8,1.4-2.4c0.6-0.6,1.5-1,2.5-1.3c1-0.3,2.3-0.4,3.8-0.4h2.7
			c3,0,5.1,0.6,6.3,1.7v0c1.2,1.1,1.8,3.1,1.8,6v7.3c0,1.4-0.1,2.6-0.4,3.6c-0.3,1-0.7,1.8-1.4,2.4c-0.6,0.6-1.5,1-2.5,1.3
			c-1,0.3-2.3,0.4-3.8,0.4h-2.7c-1.5,0-2.8-0.1-3.8-0.4c-1-0.3-1.9-0.7-2.5-1.3c-0.6-0.6-1.1-1.4-1.4-2.4c-0.3-1-0.4-2.2-0.4-3.6
			L128.2,483.9L128.2,483.9z M136.9,479c-0.8,0-1.4,0-1.9,0.1c-0.5,0-0.9,0.1-1.2,0.2c-0.3,0.1-0.6,0.2-0.8,0.3
			c-0.2,0.1-0.4,0.3-0.7,0.5c-0.2,0.2-0.4,0.4-0.5,0.6c-0.1,0.2-0.2,0.5-0.3,0.8c-0.1,0.3-0.1,0.7-0.2,1.2c0,0.5-0.1,1.1-0.1,1.9
			v6.1c0,0.7,0,1.3,0.1,1.8c0,0.5,0.1,0.9,0.2,1.2c0.1,0.3,0.2,0.6,0.3,0.8c0.1,0.2,0.3,0.4,0.5,0.6c0.2,0.2,0.4,0.4,0.7,0.5
			c0.2,0.1,0.5,0.2,0.9,0.3c0.3,0.1,0.8,0.1,1.3,0.2c0.5,0,1.1,0,1.9,0h1.3c0.8,0,1.4,0,1.9,0c0.5,0,0.9-0.1,1.3-0.2
			c0.3-0.1,0.6-0.2,0.9-0.3c0.2-0.1,0.4-0.3,0.7-0.5c0.2-0.2,0.4-0.4,0.5-0.6c0.1-0.2,0.2-0.5,0.3-0.8c0.1-0.3,0.1-0.7,0.2-1.2
			c0-0.5,0-1.1,0-1.9v-6.2c0-0.8,0-1.4-0.1-1.9c0-0.5-0.1-0.9-0.2-1.2c-0.1-0.3-0.2-0.6-0.3-0.8c-0.1-0.2-0.3-0.4-0.5-0.6
			c-0.2-0.2-0.4-0.3-0.6-0.5c-0.2-0.1-0.5-0.2-0.8-0.3c-0.3-0.1-0.8-0.1-1.3-0.2c-0.5,0-1.1-0.1-1.9-0.1L136.9,479L136.9,479z"/>
		<polygon class="st26" points="151.6,498.6 151.6,476.4 154.5,476.4 154.5,495.8 166.8,495.8 166.8,498.6 		"/>
		<path class="st26" d="M169.2,483.9c0-1.4,0.1-2.6,0.4-3.6c0.3-1,0.7-1.8,1.4-2.4c0.6-0.6,1.5-1,2.5-1.3c1-0.3,2.3-0.4,3.8-0.4h2.7
			c3,0,5.1,0.6,6.3,1.7v0c1.2,1.1,1.8,3.1,1.8,6v7.3c0,1.4-0.1,2.6-0.4,3.6c-0.3,1-0.7,1.8-1.4,2.4c-0.6,0.6-1.5,1-2.5,1.3
			c-1,0.3-2.3,0.4-3.8,0.4h-2.7c-1.5,0-2.8-0.1-3.8-0.4c-1-0.3-1.9-0.7-2.5-1.3c-0.6-0.6-1.1-1.4-1.4-2.4c-0.3-1-0.4-2.2-0.4-3.6
			L169.2,483.9L169.2,483.9z M178,479c-0.8,0-1.4,0-1.9,0.1c-0.5,0-0.9,0.1-1.2,0.2c-0.3,0.1-0.6,0.2-0.8,0.3
			c-0.2,0.1-0.4,0.3-0.7,0.5c-0.2,0.2-0.4,0.4-0.5,0.6c-0.1,0.2-0.2,0.5-0.3,0.8c-0.1,0.3-0.1,0.7-0.2,1.2c0,0.5-0.1,1.1-0.1,1.9
			v6.1c0,0.7,0,1.3,0.1,1.8c0,0.5,0.1,0.9,0.2,1.2c0.1,0.3,0.2,0.6,0.3,0.8c0.1,0.2,0.3,0.4,0.5,0.6c0.2,0.2,0.4,0.4,0.7,0.5
			c0.2,0.1,0.5,0.2,0.9,0.3c0.3,0.1,0.8,0.1,1.3,0.2c0.5,0,1.1,0,1.9,0h1.3c0.8,0,1.4,0,1.9,0c0.5,0,0.9-0.1,1.3-0.2
			c0.3-0.1,0.6-0.2,0.9-0.3c0.2-0.1,0.4-0.3,0.7-0.5c0.2-0.2,0.4-0.4,0.5-0.6c0.1-0.2,0.2-0.5,0.3-0.8c0.1-0.3,0.1-0.7,0.2-1.2
			c0-0.5,0-1.1,0-1.9v-6.2c0-0.8,0-1.4-0.1-1.9c0-0.5-0.1-0.9-0.2-1.2c-0.1-0.3-0.2-0.6-0.3-0.8c-0.1-0.2-0.3-0.4-0.5-0.6
			c-0.2-0.2-0.4-0.3-0.6-0.5c-0.2-0.1-0.5-0.2-0.8-0.3c-0.3-0.1-0.8-0.1-1.3-0.2c-0.5,0-1.1-0.1-1.9-0.1L178,479L178,479z"/>
		<path class="st26" d="M191.2,483.9c0-1.4,0.1-2.6,0.4-3.6c0.3-1,0.7-1.8,1.4-2.4c0.6-0.6,1.5-1,2.5-1.3c1-0.3,2.3-0.4,3.8-0.4h2.7
			c2.8,0,4.8,0.5,6.1,1.4c1.3,1,2,2.4,2,4.4v1.2h-3v-0.6c0-0.7-0.1-1.3-0.2-1.8c-0.2-0.5-0.4-0.8-0.8-1.1c-0.4-0.3-0.9-0.5-1.6-0.6
			c-0.7-0.1-1.5-0.2-2.5-0.2H200c-0.8,0-1.4,0-1.9,0.1c-0.5,0-0.9,0.1-1.3,0.2c-0.3,0.1-0.6,0.2-0.8,0.3c-0.2,0.1-0.4,0.3-0.6,0.5
			c-0.2,0.2-0.4,0.4-0.5,0.6c-0.1,0.2-0.2,0.5-0.3,0.7v0c-0.1,0.3-0.1,0.7-0.2,1.2c0,0.5-0.1,1.2-0.1,2v6.2c0,0.8,0,1.4,0.1,1.9
			c0,0.5,0.1,0.9,0.2,1.2v0c0.2,0.6,0.5,1.1,0.9,1.4c0.4,0.3,0.9,0.5,1.4,0.7c0.6,0.2,1.6,0.2,3.1,0.2h1.9c0.7,0,1.3,0,1.7,0
			c0.5,0,0.8-0.1,1.1-0.1c0.3-0.1,0.6-0.2,0.8-0.3c0.2-0.1,0.4-0.3,0.6-0.4c0.2-0.2,0.3-0.3,0.5-0.5c0.1-0.2,0.2-0.4,0.3-0.7
			c0.1-0.3,0.1-0.7,0.2-1.1c0-0.4,0-1,0-1.7v-1h-6v-2.8h9v3.9c0,1.4-0.1,2.6-0.4,3.6c-0.3,1-0.7,1.8-1.4,2.4c-0.6,0.6-1.5,1-2.5,1.3
			c-1,0.3-2.3,0.4-3.8,0.4h-2.7c-1.5,0-2.8-0.1-3.8-0.4c-1-0.3-1.9-0.7-2.5-1.3c-0.6-0.6-1.1-1.4-1.4-2.4c-0.3-1-0.4-2.2-0.4-3.6
			L191.2,483.9L191.2,483.9z"/>
		<path class="st26" d="M223.1,498.6h-2.9v-9.8c-0.7-1-1.5-2-2.3-3.1c-0.8-1-1.6-2.1-2.3-3.2c-0.8-1.1-1.6-2.1-2.3-3.2
			c-0.8-1-1.5-2.1-2.3-3.1h3.5l7.2,9.9c1.2-1.7,2.4-3.3,3.6-5c1.2-1.6,2.4-3.3,3.6-4.9h3.6l-9.2,12.4V498.6z"/>
		<path class="st26" d="M242.5,498.6l8.2-22.2h4.4l8.3,22.2h-3.1l-2.1-5.5h-10.5c-0.3,0.9-0.7,1.8-1,2.8c-0.4,0.9-0.7,1.9-1,2.8
			L242.5,498.6L242.5,498.6z M248.6,490.4h8.5c-0.7-1.9-1.4-3.7-2-5.5c-0.7-1.8-1.4-3.7-2.1-5.5h-0.4L248.6,490.4z"/>
		<path class="st26" d="M265.2,483.9c0-1.4,0.1-2.6,0.4-3.6c0.3-1,0.7-1.8,1.4-2.4c0.6-0.6,1.5-1,2.5-1.3c1-0.3,2.3-0.4,3.8-0.4h2.7
			c2.8,0,4.8,0.5,6.1,1.4c1.3,1,2,2.4,2,4.4v1.2h-3v-0.6c0-0.7-0.1-1.3-0.2-1.8c-0.2-0.5-0.4-0.8-0.8-1.1c-0.4-0.3-0.9-0.5-1.6-0.6
			c-0.7-0.1-1.5-0.2-2.5-0.2H274c-0.8,0-1.4,0-1.9,0.1c-0.5,0-0.9,0.1-1.3,0.2c-0.3,0.1-0.6,0.2-0.8,0.3c-0.2,0.1-0.4,0.3-0.6,0.5
			c-0.2,0.2-0.3,0.4-0.5,0.6c-0.1,0.2-0.2,0.5-0.3,0.7v0c-0.1,0.3-0.1,0.7-0.2,1.2c0,0.5-0.1,1.2-0.1,2v6.2c0,0.8,0,1.4,0.1,1.9
			c0,0.5,0.1,0.9,0.2,1.2v0c0.2,0.6,0.5,1.1,0.9,1.4c0.4,0.3,0.9,0.5,1.4,0.7c0.6,0.2,1.6,0.2,3.2,0.2h1.9c0.7,0,1.3,0,1.7,0
			c0.5,0,0.8-0.1,1.1-0.1c0.3-0.1,0.6-0.2,0.8-0.3c0.2-0.1,0.4-0.3,0.6-0.4c0.2-0.2,0.3-0.3,0.5-0.5c0.1-0.2,0.2-0.4,0.3-0.7
			c0.1-0.3,0.1-0.7,0.2-1.1c0-0.4,0-1,0-1.7v-1h-6v-2.8h9v3.9c0,1.4-0.1,2.6-0.4,3.6c-0.3,1-0.7,1.8-1.4,2.4c-0.6,0.6-1.5,1-2.5,1.3
			c-1,0.3-2.3,0.4-3.8,0.4h-2.7c-1.5,0-2.8-0.1-3.8-0.4c-1-0.3-1.9-0.7-2.5-1.3c-0.6-0.6-1.1-1.4-1.4-2.4c-0.3-1-0.4-2.2-0.4-3.6
			L265.2,483.9L265.2,483.9z"/>
		<polygon class="st26" points="288.5,498.6 288.5,476.4 304.3,476.4 304.3,479.3 291.5,479.3 291.5,485.8 303.9,485.8 303.9,488.6 
			291.5,488.6 291.5,495.8 304.3,495.8 304.3,498.6 		"/>
		<polygon class="st26" points="308.1,498.6 308.1,476.4 312.2,476.4 323.5,495 323.5,476.4 326.5,476.4 326.5,498.6 322.3,498.6 
			311,480 311,498.6 		"/>
		<path class="st26" d="M329.5,483.9c0-1.4,0.1-2.6,0.4-3.6c0.3-1,0.7-1.8,1.3-2.4s1.4-1,2.3-1.3c1-0.3,2.1-0.4,3.5-0.4h2.5
			c1.4,0,2.6,0.1,3.5,0.4c1,0.2,1.7,0.6,2.3,1.1c0.6,0.5,1,1.2,1.3,2c0.3,0.8,0.4,1.8,0.4,3v1.2H344v-0.9c0-0.8-0.1-1.4-0.2-1.9
			c-0.1-0.5-0.4-0.9-0.7-1.2c-0.3-0.3-0.8-0.5-1.4-0.6c-0.6-0.1-1.4-0.2-2.3-0.2h-1.7c-0.6,0-1.2,0-1.6,0c-0.4,0-0.8,0.1-1.1,0.2
			c-0.3,0.1-0.6,0.2-0.8,0.3c-0.2,0.1-0.4,0.3-0.6,0.5c-0.2,0.2-0.4,0.4-0.5,0.6c-0.1,0.2-0.2,0.4-0.3,0.8c-0.1,0.3-0.1,0.7-0.2,1.2
			c0,0.5,0,1.1,0,1.9v6.2c0,0.8,0,1.4,0,1.9c0,0.5,0.1,0.9,0.2,1.2c0.1,0.3,0.2,0.6,0.3,0.8c0.1,0.2,0.3,0.4,0.5,0.6
			c0.2,0.2,0.4,0.3,0.6,0.5c0.2,0.1,0.4,0.2,0.7,0.3c0.3,0.1,0.7,0.1,1.1,0.2c0.4,0,1,0,1.7,0h1.7c1,0,1.7-0.1,2.3-0.2
			c0.6-0.1,1.1-0.3,1.4-0.7c0.3-0.3,0.6-0.8,0.7-1.3c0.1-0.6,0.2-1.3,0.2-2.1c0-0.3,0-0.5,0-0.8c0-0.2,0-0.4,0-0.6h3.1v1.7
			c0,2.5-0.6,4.2-1.7,5.2h0c-1.1,1-3,1.5-5.9,1.5H337c-1.4,0-2.6-0.1-3.5-0.4c-0.9-0.3-1.7-0.7-2.3-1.3c-0.6-0.6-1-1.4-1.3-2.4
			c-0.3-1-0.4-2.2-0.4-3.6L329.5,483.9L329.5,483.9z"/>
		<path class="st26" d="M359.9,498.6h-2.9v-9.8c-0.7-1-1.5-2-2.3-3.1c-0.8-1-1.6-2.1-2.3-3.2c-0.8-1.1-1.6-2.1-2.3-3.2
			c-0.8-1-1.5-2.1-2.3-3.1h3.5l7.2,9.9c1.2-1.7,2.4-3.3,3.6-5c1.2-1.6,2.4-3.3,3.6-4.9h3.6l-9.2,12.4L359.9,498.6L359.9,498.6z"/>
	</g>
</g>
</svg>
