<?xml version="1.0" encoding="utf-8"?>
<!-- Generator: Adobe Illustrator 21.0.0, SVG Export Plug-In . SVG Version: 6.00 Build 0)  -->
<svg version="1.1" id="Layer_1" xmlns="http://www.w3.org/2000/svg" xmlns:xlink="http://www.w3.org/1999/xlink" x="0px" y="0px"
	 viewBox="0 0 393.3 501.7" style="enable-background:new 0 0 393.3 501.7;" xml:space="preserve">
<style type="text/css">
	.st0{fill:#94D9B8;}
	.st1{clip-path:url(#SVGID_2_);}
	.st2{fill:url(#path36_1_);}
	.st3{clip-path:url(#SVGID_4_);}
	.st4{fill:url(#path56_1_);}
	.st5{clip-path:url(#SVGID_6_);}
	.st6{fill:url(#path80_1_);}
	.st7{clip-path:url(#SVGID_8_);}
	.st8{fill:url(#path114_1_);}
	.st9{fill:url(#path134_1_);}
	.st10{fill:url(#path154_1_);}
	.st11{fill:url(#path174_1_);}
	.st12{fill:#8DD369;}
	.st13{fill:url(#path204_1_);}
	.st14{fill:url(#path240_1_);}
	.st15{fill:url(#path266_1_);}
	.st16{fill:url(#path296_1_);}
	.st17{fill:#4CBB9F;}
	.st18{fill:url(#path324_1_);}
	.st19{fill:url(#path352_1_);}
	.st20{fill:#47BCB8;}
	.st21{fill:url(#path376_1_);}
	.st22{fill:url(#path396_1_);}
	.st23{fill:url(#path420_1_);}
	.st24{fill:url(#path440_1_);}
	.st25{fill:url(#path472_1_);}
	.st26{fill:#231F20;}
</style>
<g>
	<g id="g14" transform="translate(48.9547,84.8404)">
		<path id="path16" class="st0" d="M50.6,183.9l37.7,70.3l62.2-65.9L50.6,183.9z"/>
	</g>
	<g id="g18">
		<g>
			<defs>
				<polygon id="SVGID_1_" points="101.4,278.8 127.2,380.5 135.3,341.9 				"/>
			</defs>
			<clipPath id="SVGID_2_">
				<use xlink:href="#SVGID_1_"  style="overflow:visible;"/>
			</clipPath>
			<g id="g20" class="st1">
				<g id="g26">
					<g id="g28">
						
							<linearGradient id="path36_1_" gradientUnits="userSpaceOnUse" x1="-205.5336" y1="556.8065" x2="-203.5392" y2="556.8065" gradientTransform="matrix(15.5119 1.6186 -1.6186 15.5119 4186.8052 -7976.5684)">
							<stop  offset="0" style="stop-color:#C3E7A5"/>
							<stop  offset="1" style="stop-color:#57C6B6"/>
						</linearGradient>
						<path id="path36" class="st2" d="M101.4,278.8l25.8,101.7l8-38.6L101.4,278.8z"/>
					</g>
				</g>
			</g>
		</g>
	</g>
	<g id="g38">
		<g>
			<defs>
				<polygon id="SVGID_3_" points="53.9,201.8 120.4,366 95.5,267.7 				"/>
			</defs>
			<clipPath id="SVGID_4_">
				<use xlink:href="#SVGID_3_"  style="overflow:visible;"/>
			</clipPath>
			<g id="g40" class="st3">
				<g id="g46">
					<g id="g48">
						
							<linearGradient id="path56_1_" gradientUnits="userSpaceOnUse" x1="-222.9833" y1="543.8972" x2="-220.989" y2="543.8972" gradientTransform="matrix(-30.0315 70.5437 -70.5437 -30.0315 31787.918 32280.3496)">
							<stop  offset="0" style="stop-color:#C3E7A5"/>
							<stop  offset="1" style="stop-color:#4CBB9F"/>
						</linearGradient>
						<path id="path56" class="st4" d="M53.9,201.8L120.4,366l-24.9-98.2L53.9,201.8z"/>
					</g>
				</g>
			</g>
		</g>
	</g>
	<g id="g58">
		<g>
			<defs>
				<polygon id="SVGID_5_" points="63.3,141.5 51.5,175.4 64.3,156.1 				"/>
			</defs>
			<clipPath id="SVGID_6_">
				<use xlink:href="#SVGID_5_"  style="overflow:visible;"/>
			</clipPath>
			<g id="g60" class="st5">
				<g id="g66">
					<g id="g68">
						
							<linearGradient id="path80_1_" gradientUnits="userSpaceOnUse" x1="-223.9485" y1="538.6393" x2="-221.9541" y2="538.6393" gradientTransform="matrix(-10.9312 25.6774 -25.6774 -10.9312 11452.1045 11774.3105)">
							<stop  offset="0" style="stop-color:#EBF278"/>
							<stop  offset="0.1626" style="stop-color:#EBF278"/>
							<stop  offset="0.5487" style="stop-color:#A3D88A"/>
							<stop  offset="1" style="stop-color:#4CBB9F"/>
						</linearGradient>
						<path id="path80" class="st6" d="M63.3,141.5l-11.9,34l12.8-19.3L63.3,141.5z"/>
					</g>
				</g>
			</g>
		</g>
	</g>
	<g id="g82">
		<g>
			<defs>
				<polygon id="SVGID_7_" points="47.8,186.5 92.6,257.4 65.2,160.2 				"/>
			</defs>
			<clipPath id="SVGID_8_">
				<use xlink:href="#SVGID_7_"  style="overflow:visible;"/>
			</clipPath>
			<g id="g84" class="st7">
				<g id="g90">
					<g id="g92">
						
							<linearGradient id="path114_1_" gradientUnits="userSpaceOnUse" x1="-223.3634" y1="541.6711" x2="-221.3691" y2="541.6711" gradientTransform="matrix(-17.5832 41.3028 -41.3028 -17.5832 18538.166 18918.0215)">
							<stop  offset="0" style="stop-color:#EBF278"/>
							<stop  offset="0.2208" style="stop-color:#E8F179"/>
							<stop  offset="0.3788" style="stop-color:#E0EF7C"/>
							<stop  offset="0.5172" style="stop-color:#D1E87F"/>
							<stop  offset="0.6444" style="stop-color:#BAE086"/>
							<stop  offset="0.7638" style="stop-color:#9ED68C"/>
							<stop  offset="0.8775" style="stop-color:#7ACA95"/>
							<stop  offset="0.9847" style="stop-color:#52BC9D"/>
							<stop  offset="1" style="stop-color:#4CBB9F"/>
						</linearGradient>
						<path id="path114" class="st8" d="M47.8,186.5l44.7,70.9l-27.3-97.2L47.8,186.5z"/>
					</g>
				</g>
			</g>
		</g>
	</g>
	<g id="g116">
		<g id="g118">
			<g id="g124">
				<g id="g126">
					
						<linearGradient id="path134_1_" gradientUnits="userSpaceOnUse" x1="-206.9771" y1="546.9803" x2="-204.9827" y2="546.9803" gradientTransform="matrix(14.6874 7.3208 -7.3208 14.6874 7109.957 -6316.5938)">
						<stop  offset="0" style="stop-color:#8CD369"/>
						<stop  offset="1" style="stop-color:#67C881"/>
					</linearGradient>
					<path id="path134" class="st9" d="M68.4,160.1l28.2,100.4l14.2-72.6L68.4,160.1z"/>
				</g>
			</g>
		</g>
	</g>
	<g id="g136">
		<g id="g138">
			<g id="g144">
				<g id="g146">
					
						<linearGradient id="path154_1_" gradientUnits="userSpaceOnUse" x1="-223.5243" y1="558.8963" x2="-221.53" y2="558.8963" gradientTransform="matrix(6.9742 -22.7947 22.7947 6.9742 -11091.3105 -8825.1162)">
						<stop  offset="0" style="stop-color:#A8D157"/>
						<stop  offset="1" style="stop-color:#8CD369"/>
					</linearGradient>
					<path id="path154" class="st10" d="M94.3,110.7l-26.4,45.4l42.3,27.7L94.3,110.7z"/>
				</g>
			</g>
		</g>
	</g>
	<g id="g156">
		<g id="g158">
			<g id="g164">
				<g id="g166">
					
						<linearGradient id="path174_1_" gradientUnits="userSpaceOnUse" x1="-224.2291" y1="543.4824" x2="-222.2348" y2="543.4824" gradientTransform="matrix(-23.7413 55.768 -55.768 -23.7413 25095.5762 25456.3535)">
						<stop  offset="0" style="stop-color:#A8D157"/>
						<stop  offset="1" style="stop-color:#8CD369"/>
					</linearGradient>
					<path id="path174" class="st11" d="M95.9,76.2l-30,58l1.2,17.5L93.5,106L95.9,76.2z"/>
				</g>
			</g>
		</g>
	</g>
	<g id="g176" transform="translate(68.2947,166.3623)">
		<path id="path178" class="st12" d="M82.6-114.4L31.7-95.6l-3.1,31.8L82.6-114.4z"/>
	</g>
	<g id="g180">
		<g id="g182">
			<g id="g188">
				<g id="g190">
					
						<linearGradient id="path204_1_" gradientUnits="userSpaceOnUse" x1="-196.5146" y1="529.7026" x2="-194.5203" y2="529.7026" gradientTransform="matrix(6.4673 5.5133 -5.5133 6.4673 4317.1289 -2295.6213)">
						<stop  offset="0" style="stop-color:#F2F6A4"/>
						<stop  offset="4.760000e-02" style="stop-color:#F0F59E"/>
						<stop  offset="0.4832" style="stop-color:#E0EE6F"/>
						<stop  offset="0.8143" style="stop-color:#D6E956"/>
						<stop  offset="1" style="stop-color:#D2E84B"/>
					</linearGradient>
					<path id="path204" class="st13" d="M149.9,40.3l-37,22.4l42.1-15.5L149.9,40.3z"/>
				</g>
			</g>
		</g>
	</g>
	<g id="g206">
		<g id="g208">
			<g id="g214">
				<g id="g216">
					
						<linearGradient id="path240_1_" gradientUnits="userSpaceOnUse" x1="-216.0591" y1="563.5715" x2="-214.0647" y2="563.5715" gradientTransform="matrix(8.5054 -14.5417 14.5417 8.5054 -6191.7295 -7879.563)">
						<stop  offset="0" style="stop-color:#F8FACC"/>
						<stop  offset="3.350000e-02" style="stop-color:#F4F8BF"/>
						<stop  offset="0.1328" style="stop-color:#E9F398"/>
						<stop  offset="0.2365" style="stop-color:#E2EF7B"/>
						<stop  offset="0.344" style="stop-color:#DAEC66"/>
						<stop  offset="0.457" style="stop-color:#D6EA59"/>
						<stop  offset="0.579" style="stop-color:#D3E84E"/>
						<stop  offset="0.7267" style="stop-color:#D2E84B"/>
						<stop  offset="0.7653" style="stop-color:#D2E84B"/>
						<stop  offset="1" style="stop-color:#D2E84B"/>
					</linearGradient>
					<path id="path240" class="st14" d="M214.8,11.4l-62.2,27.5l5.3,7L214.8,11.4z"/>
				</g>
			</g>
		</g>
	</g>
	<g id="g242">
		<g id="g244">
			<g id="g250">
				<g id="g252">
					
						<linearGradient id="path266_1_" gradientUnits="userSpaceOnUse" x1="-225.1386" y1="540.6035" x2="-223.1442" y2="540.6035" gradientTransform="matrix(-15.3996 36.1735 -36.1735 -15.3996 16250.5625 16518.9473)">
						<stop  offset="0" style="stop-color:#C3E7A5"/>
						<stop  offset="0.2013" style="stop-color:#BDE59E"/>
						<stop  offset="0.5096" style="stop-color:#AEE08C"/>
						<stop  offset="0.8845" style="stop-color:#94D671"/>
						<stop  offset="1" style="stop-color:#8CD369"/>
					</linearGradient>
					<path id="path266" class="st15" d="M156.7,50.8l-58.4,54.6l75.9,9.8L156.7,50.8z"/>
				</g>
			</g>
		</g>
	</g>
	<g id="g268">
		<g id="g270">
			<g id="g276">
				<g id="g278">
					
						<linearGradient id="path296_1_" gradientUnits="userSpaceOnUse" x1="-230.843" y1="543.0153" x2="-228.8487" y2="543.0153" gradientTransform="matrix(-30.7658 8.9798 -8.9798 -30.7658 -2074.5791 18911.8281)">
						<stop  offset="0" style="stop-color:#C3E7A5"/>
						<stop  offset="0.1797" style="stop-color:#C2E7A1"/>
						<stop  offset="0.3649" style="stop-color:#C0E695"/>
						<stop  offset="0.5528" style="stop-color:#BEE482"/>
						<stop  offset="0.7425" style="stop-color:#BAE26B"/>
						<stop  offset="0.9318" style="stop-color:#B3DE4B"/>
						<stop  offset="1" style="stop-color:#B1DD3D"/>
					</linearGradient>
					<path id="path296" class="st16" d="M96.9,108.3l16.4,75.6l59.9-65.7L96.9,108.3z"/>
				</g>
			</g>
		</g>
	</g>
	<g id="g298" transform="translate(86.9633,85.3147)">
		<path id="path300" class="st0" d="M113.6,182.2L88.5,35l-60.8,66.6L113.6,182.2z"/>
	</g>
	<g id="g302" transform="translate(48.6593,86.0093)">
		<path id="path304" class="st17" d="M50.1,179.6l100.1,4.4l-85.3-79.9L50.1,179.6z"/>
	</g>
	<g id="g306">
		<g id="g308">
			<g id="g314">
				<g id="g316">
					
						<linearGradient id="path324_1_" gradientUnits="userSpaceOnUse" x1="-224.8497" y1="542.4918" x2="-222.8553" y2="542.4918" gradientTransform="matrix(-25.6683 60.2945 -60.2945 -25.6683 27242.3867 27511.5742)">
						<stop  offset="0" style="stop-color:#57C6B6"/>
						<stop  offset="1" style="stop-color:#3A80C9"/>
					</linearGradient>
					<path id="path324" class="st18" d="M345,144.1L236.3,3.2l-57.6,112.6L345,144.1z"/>
				</g>
			</g>
		</g>
	</g>
	<g id="g326">
		<g id="g328">
			<g id="g334">
				<g id="g336">
					
						<linearGradient id="path352_1_" gradientUnits="userSpaceOnUse" x1="-224.8498" y1="543.2626" x2="-222.8554" y2="543.2626" gradientTransform="matrix(-25.6675 60.2926 -60.2926 -25.6675 27194.7871 27490.8125)">
						<stop  offset="0" style="stop-color:#C3E7A5"/>
						<stop  offset="4.880000e-02" style="stop-color:#BEE69E"/>
						<stop  offset="0.2986" style="stop-color:#A7DC84"/>
						<stop  offset="0.5441" style="stop-color:#97D776"/>
						<stop  offset="0.781" style="stop-color:#8FD46C"/>
						<stop  offset="1" style="stop-color:#8CD369"/>
					</linearGradient>
					<path id="path352" class="st19" d="M232.2,4.5l-72.9,44.1l17.5,64.2L232.2,4.5z"/>
				</g>
			</g>
		</g>
	</g>
	<g id="g354" transform="translate(141.3208,130.5289)">
		<path id="path356" class="st20" d="M203.8,16.7L37-11.6l25.6,149.9L203.8,16.7z"/>
	</g>
	<g id="g358">
		<g id="g360">
			<g id="g366">
				<g id="g368">
					
						<linearGradient id="path376_1_" gradientUnits="userSpaceOnUse" x1="-225.8169" y1="540.9747" x2="-223.8225" y2="540.9747" gradientTransform="matrix(-33.0257 40.7754 -40.7754 -33.0257 14918.1328 27273.5723)">
						<stop  offset="0" style="stop-color:#3B8EBD"/>
						<stop  offset="1" style="stop-color:#336AB5"/>
					</linearGradient>
					<path id="path376" class="st21" d="M282.4,309.5l62.5-158L205.6,271.4L282.4,309.5z"/>
				</g>
			</g>
		</g>
	</g>
	<g id="g378">
		<g id="g380">
			<g id="g386">
				<g id="g388">
					
						<linearGradient id="path396_1_" gradientUnits="userSpaceOnUse" x1="-210.0572" y1="544.9863" x2="-208.0628" y2="544.9863" gradientTransform="matrix(17.863 17.616 -17.616 17.863 13494.7275 -5686.6533)">
						<stop  offset="0" style="stop-color:#C3E7A5"/>
						<stop  offset="1" style="stop-color:#57C6B6"/>
					</linearGradient>
					<path id="path396" class="st22" d="M129.3,385.7l97.5-4.1L138,343.8L129.3,385.7z"/>
				</g>
			</g>
		</g>
	</g>
	<g id="g398" transform="translate(116.2701,68.9445)">
		<path id="path400" class="st20" d="M162.2,242.1l-75.3-37.4L25,270.2L162.2,242.1z"/>
	</g>
	<g id="g402">
		<g id="g404">
			<g id="g410">
				<g id="g412">
					
						<linearGradient id="path420_1_" gradientUnits="userSpaceOnUse" x1="-222.1132" y1="539.3466" x2="-220.1188" y2="539.3466" gradientTransform="matrix(-16.6844 39.1916 -39.1916 -16.6844 17639.9355 18038.627)">
						<stop  offset="0" style="stop-color:#40A1C6"/>
						<stop  offset="1" style="stop-color:#57C6B6"/>
					</linearGradient>
					<path id="path420" class="st23" d="M233.1,381l46.6-67.1L142,342.2L233.1,381z"/>
				</g>
			</g>
		</g>
	</g>
	<g id="g422">
		<g id="g424">
			<g id="g430">
				<g id="g432">
					
						<linearGradient id="path440_1_" gradientUnits="userSpaceOnUse" x1="-208.6677" y1="533.7353" x2="-206.6734" y2="533.7353" gradientTransform="matrix(6.7097 17.2775 -17.2775 6.7097 10880.9561 320.0431)">
						<stop  offset="0" style="stop-color:#58C6B5"/>
						<stop  offset="1" style="stop-color:#3B7DC9"/>
					</linearGradient>
					<path id="path440" class="st24" d="M237.3,380.3l21.8-5.9l48.8-93.6l-23.5,31.8L237.3,380.3z"/>
				</g>
			</g>
		</g>
	</g>
	<g id="g442">
		<g id="g444">
			<g id="g450">
				<g id="g452">
					
						<linearGradient id="path472_1_" gradientUnits="userSpaceOnUse" x1="-178.4626" y1="533.2254" x2="-176.4683" y2="533.2254" gradientTransform="matrix(6.6144 4.952 -4.952 6.6144 4138.7998 -2405.6504)">
						<stop  offset="0" style="stop-color:#4EB4E8"/>
						<stop  offset="0.1576" style="stop-color:#4EB4E8"/>
						<stop  offset="0.4019" style="stop-color:#4DB2E7"/>
						<stop  offset="0.5614" style="stop-color:#4AACE2"/>
						<stop  offset="0.6966" style="stop-color:#47A2DB"/>
						<stop  offset="0.8183" style="stop-color:#4293D2"/>
						<stop  offset="0.9299" style="stop-color:#3B81C6"/>
						<stop  offset="1" style="stop-color:#3775BD"/>
					</linearGradient>
					<path id="path472" class="st25" d="M316.9,263.4l24.1-93.8l-52.1,131.7L316.9,263.4z"/>
				</g>
			</g>
		</g>
	</g>
</g>
<g>
	<g>
		<g id="g482" transform="translate(184.6433,139.744)">
			<path id="path484" class="st26" d="M-159.6,301.1c0,1.5,0.2,2.4,0.5,2.5c1.1,0.4,1.6,1.1,1.6,2v6.8c0,2.1-1.1,3.1-3.4,3.1h-4.8
				c-2.2,0-3.4-1-3.4-3.1V297h2.4v15.5c0,0.6,0.3,1,0.9,1h4.8c0.6,0,0.9-0.3,0.9-1v-6.3c0-0.3-0.1-0.5-0.3-0.7
				c-0.2-0.2-0.5-0.3-0.9-0.5c-0.7-0.2-1-1.5-1-3.9H-159.6z"/>
		</g>
		<g id="g486" transform="translate(196.5625,129.4988)">
			<path id="path488" class="st26" d="M-164.2,317.6v5.1c0,0.6,0.3,1,0.9,1h4.9c0.6,0,0.9-0.3,0.9-1l0.1-9c0-0.6-0.3-1-0.9-1h-1.2
				c-2.8,0-4.1-1.8-4.1-5.4h2.4c0,2.2,0.6,3.3,1.7,3.3h1.2c2.2,0,3.3,1,3.3,3.1l-0.1,9c0,2.1-1.1,3.1-3.4,3.1h-4.9
				c-2.2,0-3.4-1-3.4-3.1v-5.1H-164.2z"/>
		</g>
		<g id="g490" transform="translate(217.3887,139.8629)">
			<path id="path492" class="st26" d="M-172.3,300.9c0-0.1,0-0.1,0-0.2v-0.2c0-0.8,0.2-1.4,0.7-1.8c0.4-0.4,1.1-0.6,2-0.6h1.9
				c0.7,0,2,0.6,4,1.8v-3.1h2.4v15.5c0,2.1-1.2,3.1-3.6,3.1h-4.6c-2.2,0-3.4-1-3.4-3.1l0.1-4.8h2.4l-0.1,4.8c0,0.6,0.3,1,0.9,1h4.6
				c0.8,0,1.2-0.3,1.2-1v-9.7c-2-1.6-3.4-2.4-4.2-2.4h-0.9c-0.7,0-1,0.3-1,1l0.1,3.2h-2.4V300.9z"/>
		</g>
		<g id="g494" transform="translate(243.6966,129.4988)">
			<path id="path496" class="st26" d="M-182.6,317.6v5.1c0,0.6,0.3,1,0.9,1h4.9c0.6,0,0.9-0.3,0.9-1l0.1-9c0-0.6-0.3-1-0.9-1h-1.2
				c-2.8,0-4.1-1.8-4.1-5.4h2.4c0,2.2,0.6,3.3,1.7,3.3h1.2c2.2,0,3.3,1,3.3,3.1l-0.1,9c0,2.1-1.1,3.1-3.4,3.1h-4.9
				c-2.2,0-3.4-1-3.4-3.1v-5.1H-182.6z"/>
		</g>
		<g id="g498" transform="translate(283.7578,142.7535)">
			<path id="path500" class="st26" d="M-198.1,296.3h-8.6c-0.9,0-1.4,0.3-1.4,0.8l0,2.7c0.8-0.4,1.4-0.6,2-0.6h2
				c0.7,0,1.5,0.5,2.3,1.6c0.8-1.1,1.6-1.6,2.5-1.6h2.7c2.3,0,3.4,1,3.4,3.1l-0.1,10h-2.4l0.1-10c0-0.3-0.1-0.6-0.3-0.7
				c-0.2-0.2-0.4-0.2-0.8-0.2h-2.7c-0.9,0-1.3,0.3-1.3,1v6.1h-2.4v-6.1c0-0.7-0.3-1-1-1h-3.2c-0.6,0-0.9,0.3-0.9,1l0.1,10h-2.4v-10
				l-0.1-5.5c0-1.8,1.2-2.7,3.5-2.7h9V296.3z"/>
		</g>
		<g id="g502" transform="translate(308.8671,119.5533)">
			<path id="path504" class="st26" d="M-207.9,333.7c0.7,0,1-0.3,1-1v-12.4c0-0.6-0.5-1-1.6-1h-3.7c-0.6,0-0.9,0.3-0.9,1v12.4
				c0,0.6,0.3,1,0.9,1H-207.9z M-199.1,335.5l0.1-15.3c0-0.6-0.3-0.9-1-0.9h-2.3c-1.3,0-2.1,0.6-2.2,1.7c0,0.1,0,0.2,0,0.4
				c0,0.1,0,0.3,0,0.4v10.9c0,2.1-1.2,3.1-3.5,3.1h-4.3c-2.2,0-3.4-1-3.4-3.1v-12.4c0-2.1,1.1-3.1,3.3-3.1h3.7
				c1.1,0,2.1,0.6,2.9,1.7c0.7-1.2,1.7-1.7,2.8-1.7h2.8c2.3,0,3.5,1,3.5,3l-0.1,15.3H-199.1z"/>
		</g>
		<g id="g506" transform="translate(340.357,133.4848)">
			<path id="path508" class="st26" d="M-220.1,311.2h2.7c0.7,0,1.1-0.5,1.1-1.4v-3.5c0-0.6-0.3-0.9-0.9-0.9h-4.2
				c-0.6,0-0.9,0.3-0.9,1l0.1,2.9h-2.4l-0.1-2.9c0-2.1,1.1-3.1,3.3-3.1h4.2c2.2,0,3.4,1,3.4,3v2.8c0,1.3-0.6,2.4-1.8,3.1
				c1.4,0.8,2.1,1.8,2.1,3.3v3.4c0,2.1-1.1,3.1-3.4,3.1h-4.9c-2.2,0-3.4-1-3.4-3.1l0.1-4.1h2.4l-0.1,4.1c0,0.6,0.3,1,0.9,1h4.9
				c0.6,0,0.9-0.3,0.9-1v-4.1c0-0.9-0.4-1.3-1.2-1.3h-2.9V311.2z"/>
		</g>
		<g id="g510" transform="translate(356.9984,141.418)">
			<path id="path512" class="st26" d="M-226.6,298.4c0-0.1,0-0.1,0-0.2v-0.2c0-0.9,0.3-1.6,0.8-2.1c0.5-0.4,1.3-0.7,2.3-0.7h4.3
				c2.2,0,3.4,1,3.4,3v12.5c0,2.1-1.1,3.1-3.4,3.1h-4.9c-2.2,0-3.4-1-3.4-3.1l0.1-4.7h2.4l-0.1,4.7c0,0.6,0.3,1,0.9,1h4.9
				c0.6,0,0.9-0.3,0.9-1v-12.5c0-0.6-0.3-0.9-0.9-0.9h-4.3c-0.5,0-0.8,0.3-0.8,0.9l0.1,3.5h-2.4V298.4z"/>
		</g>
		<g id="g514" transform="translate(403.838,130.0361)">
			<path id="path516" class="st26" d="M-244.8,316.8v-6.9c0-0.7-0.3-1-1-1h-2.8c-0.7,0-1,0.3-1,1v6.9h-2.4v-6.9c0-0.7-0.3-1-0.9-1
				h-3.5c-0.6,0-0.9,0.3-0.9,1l0.2,10c0,2,0.8,3.1,2.5,3.1l15.3,0v2.1h-15.5c-3.2,0-4.8-1.7-4.8-5.2l-0.2-10c0-2.1,1.1-3.1,3.3-3.1
				h3.6c0.6,0,1.3,0.5,2.1,1.5c0.8-1,1.5-1.5,2.2-1.5h2.8c0.7,0,1.4,0.5,2.2,1.5c0.8-1,1.5-1.5,2.3-1.5h3.2c2.3,0,3.4,1,3.4,3.1
				l-0.4,9.9h-2.4l0.4-9.9c0-0.7-0.3-1-1-1h-3.2c-0.7,0-1,0.3-1,1v6.9H-244.8z"/>
		</g>
		<g id="g518" transform="translate(437.1207,124.5157)">
			<path id="path520" class="st26" d="M-257.7,325.7v-10.3c0-0.7-0.6-1-1.8-1h-2.3c-0.6,0-0.9,0.3-0.9,1l0.1,15.2h-2.4l-0.1-15.2
				c0-2.1,1.1-3.1,3.3-3.1h2.3c1.2,0,2.2,0.6,3,1.9c0.8-1.2,1.8-1.9,3-1.9h2.1c2.3,0,3.4,1,3.4,3.1l-0.1,15.2h-2.4l0.1-15.2
				c0-0.7-0.3-1-1-1h-2.1c-1.2,0-1.8,0.3-1.8,1v10.3H-257.7z"/>
		</g>
		<g id="g522" transform="translate(473.2347,139.744)">
			<path id="path524" class="st26" d="M-271.8,301.1c0,1.5,0.2,2.4,0.5,2.5c1.1,0.4,1.6,1.1,1.6,2v6.8c0,2.1-1.1,3.1-3.4,3.1h-4.8
				c-2.2,0-3.4-1-3.4-3.1V297h2.4v15.5c0,0.6,0.3,1,0.9,1h4.8c0.6,0,0.9-0.3,0.9-1v-6.3c0-0.3-0.1-0.5-0.3-0.7
				c-0.2-0.2-0.5-0.3-0.9-0.5c-0.7-0.2-1-1.5-1-3.9H-271.8z"/>
		</g>
		<g id="g526" transform="translate(495.3629,116.5231)">
			<path id="path528" class="st26" d="M-280.4,338.5l-0.1-15.2c0-2,1.1-3.1,3.3-3.1h4.6c2.2,0,3.3,1,3.3,3.1l-0.1,15.2h-2.4
				l0.1-15.2c0-0.6-0.3-0.9-0.9-0.9h-4.5c-0.6,0-0.9,0.3-0.9,0.9l0.1,15.2H-280.4z"/>
		</g>
		<g id="g530" transform="translate(531.7352,119.5533)">
			<path id="path532" class="st26" d="M-294.5,333.7c0.6,0,0.9-0.3,0.9-1v-6.3c0-0.6-0.3-0.9-0.9-0.9h-4c-1.2,0-1.8,0.3-1.8,0.9v6.3
				c0,0.6,0.3,1,0.9,1H-294.5z M-302.8,320.6c0-2.1,1.1-3.1,3.4-3.1l7,0v2.1l-7,0c-0.6,0-0.9,0.3-0.9,1v3.4c0.6-0.4,1.2-0.6,1.7-0.6
				h4c2.2,0,3.4,1,3.4,3v6.3c0,2.1-1.1,3.1-3.4,3.1h-4.9c-2.2,0-3.4-1-3.4-3.1V320.6z"/>
		</g>
		<g id="g534" transform="translate(553.9564,124.5157)">
			<path id="path536" class="st26" d="M-303.2,325.7v-10.3c0-0.7-0.6-1-1.8-1h-2.3c-0.6,0-0.9,0.3-0.9,1l0.1,15.2h-2.4l-0.1-15.2
				c0-2.1,1.1-3.1,3.3-3.1h2.3c1.2,0,2.2,0.6,3,1.9c0.8-1.2,1.8-1.9,3-1.9h2.1c2.3,0,3.4,1,3.4,3.1l-0.1,15.2h-2.4l0.1-15.2
				c0-0.7-0.3-1-1-1h-2.1c-1.2,0-1.8,0.3-1.8,1v10.3H-303.2z"/>
		</g>
		<g id="g538" transform="translate(582.7545,133.4848)">
			<path id="path540" class="st26" d="M-314.4,311.2h2.7c0.7,0,1.1-0.5,1.1-1.4v-3.5c0-0.6-0.3-0.9-0.9-0.9h-4.2
				c-0.6,0-0.9,0.3-0.9,1l0.1,2.9h-2.4l-0.1-2.9c0-2.1,1.1-3.1,3.3-3.1h4.2c2.2,0,3.4,1,3.4,3v2.8c0,1.3-0.6,2.4-1.8,3.1
				c1.4,0.8,2.1,1.8,2.1,3.3v3.4c0,2.1-1.1,3.1-3.4,3.1h-4.9c-2.2,0-3.4-1-3.4-3.1l0.1-4.1h2.4l-0.1,4.1c0,0.6,0.3,1,0.9,1h4.9
				c0.6,0,0.9-0.3,0.9-1v-4.1c0-0.9-0.4-1.3-1.2-1.3h-2.9V311.2z"/>
		</g>
		<g id="g542" transform="translate(601.9895,129.4988)">
			<path id="path544" class="st26" d="M-321.8,317.6v5.1c0,0.6,0.3,1,0.9,1h4.9c0.6,0,0.9-0.3,0.9-1l0.1-9c0-0.6-0.3-1-0.9-1h-1.2
				c-2.8,0-4.1-1.8-4.1-5.4h2.4c0,2.2,0.6,3.3,1.7,3.3h1.2c2.2,0,3.3,1,3.3,3.1l-0.1,9c0,2.1-1.1,3.1-3.4,3.1h-4.9
				c-2.2,0-3.4-1-3.4-3.1v-5.1H-321.8z"/>
		</g>
		<g id="g546" transform="translate(635.7888,146.4605)">
			<path id="path548" class="st26" d="M-335,290.3c0,1.1,0.3,1.7,1,1.7c1.6,0,2.4,0.8,2.4,2.5v2.3c0,0.9-0.4,1.7-1.3,2.3
				c1,0.8,1.5,1.6,1.5,2.3v4.5c0,2.1-1.2,3.1-3.5,3.1h-5.4c-2.2,0-3.4-1-3.4-3.1v-15.1h2.4v15.1c0,0.6,0.3,1,0.9,1h5.4
				c0.7,0,1-0.3,1-1v-4.5c0-0.8-0.3-1.2-1-1.2h-3.7V298l3.7,0c0.3,0,0.5-0.1,0.6-0.2c0.1-0.1,0.2-0.3,0.2-0.6v-1.9
				c0-0.8-0.2-1.1-0.6-1.1c-1.8,0-2.7-1.3-2.7-3.8H-335z"/>
		</g>
		<g id="g550" transform="translate(646.5352,116.5231)">
			<path id="path552" class="st26" d="M-339.2,338.5l-0.1-15.2c0-2,1.1-3.1,3.3-3.1h4.6c2.2,0,3.3,1,3.3,3.1l-0.1,15.2h-2.4
				l0.1-15.2c0-0.6-0.3-0.9-0.9-0.9h-4.5c-0.6,0-0.9,0.3-0.9,0.9l0.1,15.2H-339.2z"/>
		</g>
		<g id="g554" transform="translate(670.6473,141.418)">
			<path id="path556" class="st26" d="M-348.5,298.4c0-0.1,0-0.1,0-0.2v-0.2c0-0.9,0.3-1.6,0.8-2.1c0.5-0.4,1.3-0.7,2.3-0.7h4.3
				c2.2,0,3.4,1,3.4,3v12.5c0,2.1-1.1,3.1-3.4,3.1h-4.9c-2.2,0-3.4-1-3.4-3.1l0.1-4.7h2.4l-0.1,4.7c0,0.6,0.3,1,0.9,1h4.9
				c0.6,0,0.9-0.3,0.9-1v-12.5c0-0.6-0.3-0.9-0.9-0.9h-4.3c-0.5,0-0.8,0.3-0.8,0.9l0.1,3.5h-2.4V298.4z"/>
		</g>
		<g id="g558" transform="translate(706.224,119.5533)">
			<path id="path560" class="st26" d="M-362.4,333.7c0.6,0,0.9-0.3,0.9-1v-6.2c0-0.7-0.3-1-0.9-1h-5.1c-0.4,0-0.7,0.3-0.7,1v6.2
				c0,0.6,0.3,1,0.9,1H-362.4z M-370.6,326.5c0-2.1,1.1-3.1,3.2-3.1h1.6l0.2-1.1c0-1.3-0.4-2.1-1.3-2.6c-0.9-0.4-1.3-1.3-1.3-2.6
				h3.1c0,0.7,0.3,1.3,1,1.9c0.6,0.5,0.9,1.4,0.9,2.7v0.4c0,0,0,0.1,0,0.1l-0.1,1.1h1.5c1.9,0,2.8,1,2.8,3.1v6.2
				c0,2.1-1.1,3.1-3.4,3.1h-4.9c-2.2,0-3.4-1-3.4-3.1V326.5z"/>
		</g>
		<g id="g562" transform="translate(716.495,116.5231)">
			<path id="path564" class="st26" d="M-366.4,338.5l-0.1-15.2c0-2,1.1-3.1,3.3-3.1h4.6c2.2,0,3.3,1,3.3,3.1l-0.1,15.2h-2.4
				l0.1-15.2c0-0.6-0.3-0.9-0.9-0.9h-4.5c-0.6,0-0.9,0.3-0.9,0.9l0.1,15.2H-366.4z"/>
		</g>
		<g id="g566" transform="translate(754.7996,139.744)">
			<path id="path568" class="st26" d="M-381.2,301.1c0,1.5,0.2,2.4,0.5,2.5c1.1,0.4,1.6,1.1,1.6,2v6.8c0,2.1-1.1,3.1-3.4,3.1h-4.8
				c-2.2,0-3.4-1-3.4-3.1V297h2.4v15.5c0,0.6,0.3,1,0.9,1h4.8c0.6,0,0.9-0.3,0.9-1v-6.3c0-0.3-0.1-0.5-0.3-0.7
				c-0.2-0.2-0.5-0.3-0.9-0.5c-0.7-0.2-1-1.5-1-3.9H-381.2z"/>
		</g>
	</g>
	<g>
		<g id="g570" transform="translate(195.589,81.9165)">
			<path id="path572" class="st26" d="M-178.4,394.3c0.5,0,0.8-0.3,0.8-0.9v-6.5c0-0.6-0.3-0.9-0.8-0.9h-4.9c-0.7,0-1,0.3-1,0.9v6.5
				c0,0.6,0.3,0.9,1,0.9H-178.4z M-178.9,402.2l-11.7,0c-1.3,0-2.2-0.3-2.8-1c-0.6-0.7-0.9-1.7-0.9-3l-0.2-11.2
				c0-2.1,1.1-3.1,3.4-3.1h2.8c1.1,0,2,0.5,2.7,1.6c0.6-1.1,1.4-1.6,2.4-1.6h4.9c2.1,0,3.2,1,3.2,3v6.5c0,2-1.1,3-3.2,3h-4.9
				c-2.3,0-3.5-1-3.5-3v-6.5c0-0.6-0.7-0.9-2.1-0.9h-2.3c-0.6,0-0.9,0.3-0.9,1l0.2,10.8c0,1.5,0.9,2.3,2.7,2.3l10.3,0V402.2z"/>
		</g>
		<g id="g574" transform="translate(209.2389,81.9552)">
			<path id="path576" class="st26" d="M-183.7,394.2v5.1c0,0.6,0.3,1,0.9,1h4.9c0.6,0,0.9-0.3,0.9-1l0.1-9c0-0.6-0.3-1-0.9-1h-1.2
				c-2.8,0-4.1-1.8-4.1-5.4h2.4c0,2.2,0.6,3.3,1.7,3.3h1.2c2.2,0,3.3,1,3.3,3.1l-0.1,9c0,2.1-1.1,3.1-3.4,3.1h-4.9
				c-2.2,0-3.4-1-3.4-3.1v-5.1H-183.7z"/>
		</g>
		<g id="g578" transform="translate(252.3484,94.2128)">
			<path id="path580" class="st26" d="M-200.5,374.5h-2.4c-0.6,0-0.9,0.3-0.9,0.8v11.8c0,0.6,0.3,1,0.9,1h7.3c0.5,0,0.8-0.3,0.8-1
				v-11.8c0-0.5-0.3-0.8-0.8-0.8h-2.7v5h-2.2V374.5z M-206.3,375.5c0-1.9,1.1-2.9,3.3-2.9h2.5v-0.9h2.2v0.9h2.7c2.2,0,3.2,1,3.2,2.9
				v11.6c0,2.1-1.1,3.1-3.2,3.1h-7.3c-2.2,0-3.4-1-3.4-3.1V375.5z"/>
		</g>
		<g id="g582" transform="translate(271.6195,93.8744)">
			<path id="path584" class="st26" d="M-208,375c0-0.1,0-0.1,0-0.2v-0.2c0-0.9,0.3-1.6,0.8-2.1c0.5-0.4,1.3-0.7,2.3-0.7h4.3
				c2.2,0,3.4,1,3.4,3v12.5c0,2.1-1.1,3.1-3.4,3.1h-4.9c-2.2,0-3.4-1-3.4-3.1l0.1-4.7h2.4l-0.1,4.7c0,0.6,0.3,1,0.9,1h4.9
				c0.6,0,0.9-0.3,0.9-1V375c0-0.6-0.3-0.9-0.9-0.9h-4.3c-0.5,0-0.8,0.3-0.8,0.9l0.1,3.5h-2.4V375z"/>
		</g>
		<g id="g586" transform="translate(294.9411,92.3193)">
			<path id="path588" class="st26" d="M-217,377.5c0-0.1,0-0.1,0-0.2v-0.2c0-0.8,0.2-1.4,0.7-1.8c0.4-0.4,1.1-0.6,2-0.6h1.9
				c0.7,0,2,0.6,4,1.8v-3.1h2.4V389c0,2.1-1.2,3.1-3.6,3.1h-4.6c-2.2,0-3.4-1-3.4-3.1l0.1-4.8h2.4l-0.1,4.8c0,0.6,0.3,1,0.9,1h4.6
				c0.8,0,1.2-0.3,1.2-1v-9.7c-2-1.6-3.4-2.4-4.2-2.4h-0.9c-0.7,0-1,0.3-1,1l0.1,3.2h-2.4V377.5z"/>
		</g>
		<g id="g590" transform="translate(330.9156,72.0097)">
			<path id="path592" class="st26" d="M-231,410.3c0.6,0,0.9-0.3,0.9-1V403c0-0.6-0.3-0.9-0.9-0.9h-4c-1.2,0-1.8,0.3-1.8,0.9v6.3
				c0,0.6,0.3,1,0.9,1H-231z M-239.2,397.2c0-2.1,1.1-3.1,3.4-3.1l7,0v2.1l-7,0c-0.6,0-0.9,0.3-0.9,1v3.4c0.6-0.4,1.2-0.6,1.7-0.6h4
				c2.2,0,3.4,1,3.4,3v6.3c0,2.1-1.1,3.1-3.4,3.1h-4.9c-2.2,0-3.4-1-3.4-3.1V397.2z"/>
		</g>
		<g id="g594" transform="translate(353.1368,76.9721)">
			<path id="path596" class="st26" d="M-239.7,402.3V392c0-0.7-0.6-1-1.8-1h-2.3c-0.6,0-0.9,0.3-0.9,1l0.1,15.2h-2.4l-0.1-15.2
				c0-2.1,1.1-3.1,3.3-3.1h2.3c1.2,0,2.2,0.6,3,1.9c0.8-1.2,1.8-1.9,3-1.9h2.1c2.3,0,3.4,1,3.4,3.1l-0.1,15.2h-2.4l0.1-15.2
				c0-0.7-0.3-1-1-1h-2.1c-1.2,0-1.8,0.3-1.8,1v10.3H-239.7z"/>
		</g>
		<g id="g598" transform="translate(398.38,82.4925)">
			<path id="path600" class="st26" d="M-257.2,393.4v-6.9c0-0.7-0.3-1-1-1h-2.8c-0.7,0-1,0.3-1,1v6.9h-2.4v-6.9c0-0.7-0.3-1-0.9-1
				h-3.5c-0.6,0-0.9,0.3-0.9,1l0.2,10c0,2,0.8,3.1,2.5,3.1l15.3,0v2.1h-15.5c-3.2,0-4.8-1.7-4.8-5.2l-0.2-10c0-2.1,1.1-3.1,3.3-3.1
				h3.6c0.6,0,1.3,0.5,2.1,1.5c0.8-1,1.5-1.5,2.2-1.5h2.8c0.7,0,1.4,0.5,2.2,1.5c0.8-1,1.5-1.5,2.3-1.5h3.2c2.3,0,3.4,1,3.4,3.1
				l-0.4,9.9h-2.4l0.4-9.9c0-0.7-0.3-1-1-1h-3.2c-0.7,0-1,0.3-1,1v6.9H-257.2z"/>
		</g>
		<g id="g602" transform="translate(431.6627,76.9721)">
			<path id="path604" class="st26" d="M-270.2,402.3V392c0-0.7-0.6-1-1.8-1h-2.3c-0.6,0-0.9,0.3-0.9,1l0.1,15.2h-2.4l-0.1-15.2
				c0-2.1,1.1-3.1,3.3-3.1h2.3c1.2,0,2.2,0.6,3,1.9c0.8-1.2,1.8-1.9,3-1.9h2.1c2.3,0,3.4,1,3.4,3.1l-0.1,15.2h-2.4l0.1-15.2
				c0-0.7-0.3-1-1-1h-2.1c-1.2,0-1.8,0.3-1.8,1v10.3H-270.2z"/>
		</g>
		<g id="g606" transform="translate(467.2393,72.0097)">
			<path id="path608" class="st26" d="M-284,410.3c0.6,0,0.9-0.3,0.9-1v-6.1c0-0.7-0.4-1.1-1.2-1.1h-5.6c-0.6,0-0.9,0.4-0.9,1.1v6.1
				c0,0.6,0.3,1,0.9,1H-284z M-293.2,403.2c0-2.2,1.1-3.2,3.3-3.2h4.5v-3c0-0.6-0.3-1-1-1h-1.9c-0.7,0-1.1,0.3-1,0.8l0,1h-2.3v-1.5
				c0-1.6,1-2.4,2.9-2.4h3.2c1.7,0,2.6,0.9,2.6,2.6v3.7c0.8,0,1.4,0.2,1.7,0.6c0.4,0.4,0.6,1,0.6,1.8v6.8c0,2.1-1.1,3.1-3.4,3.1
				h-5.8c-2.2,0-3.4-1-3.4-3.1V403.2z"/>
		</g>
		<g id="g610" transform="translate(477.5052,68.9795)">
			<path id="path612" class="st26" d="M-288,415.2l-0.1-15.2c0-2,1.1-3.1,3.3-3.1h4.6c2.2,0,3.3,1,3.3,3.1l-0.1,15.2h-2.4l0.1-15.2
				c0-0.6-0.3-0.9-0.9-0.9h-4.5c-0.6,0-0.9,0.3-0.9,0.9l0.1,15.2H-288z"/>
		</g>
		<g id="g614" transform="translate(501.6174,93.8744)">
			<path id="path616" class="st26" d="M-297.4,375c0-0.1,0-0.1,0-0.2v-0.2c0-0.9,0.3-1.6,0.8-2.1c0.5-0.4,1.3-0.7,2.3-0.7h4.3
				c2.2,0,3.4,1,3.4,3v12.5c0,2.1-1.1,3.1-3.4,3.1h-4.9c-2.2,0-3.4-1-3.4-3.1l0.1-4.7h2.4l-0.1,4.7c0,0.6,0.3,1,0.9,1h4.9
				c0.6,0,0.9-0.3,0.9-1V375c0-0.6-0.3-0.9-0.9-0.9h-4.3c-0.5,0-0.8,0.3-0.8,0.9l0.1,3.5h-2.4V375z"/>
		</g>
		<g id="g618" transform="translate(537.194,72.0097)">
			<path id="path620" class="st26" d="M-311.2,410.3c0.6,0,0.9-0.3,0.9-1v-6.2c0-0.7-0.3-1-0.9-1h-5.1c-0.4,0-0.7,0.3-0.7,1v6.2
				c0,0.6,0.3,1,0.9,1H-311.2z M-319.4,403.1c0-2.1,1.1-3.1,3.2-3.1h1.6l0.2-1.1c0-1.3-0.4-2.1-1.3-2.6c-0.9-0.4-1.3-1.3-1.3-2.6
				h3.1c0,0.7,0.3,1.3,1,1.9c0.6,0.5,0.9,1.4,0.9,2.7v0.4c0,0,0,0.1,0,0.1l-0.1,1.1h1.5c1.9,0,2.8,1,2.8,3.1v6.2
				c0,2.1-1.1,3.1-3.4,3.1h-4.9c-2.2,0-3.4-1-3.4-3.1V403.1z"/>
		</g>
		<g id="g622" transform="translate(547.465,68.9795)">
			<path id="path624" class="st26" d="M-315.2,415.2l-0.1-15.2c0-2,1.1-3.1,3.3-3.1h4.6c2.2,0,3.3,1,3.3,3.1l-0.1,15.2h-2.4
				l0.1-15.2c0-0.6-0.3-0.9-0.9-0.9h-4.5c-0.6,0-0.9,0.3-0.9,0.9l0.1,15.2H-315.2z"/>
		</g>
		<g id="g626" transform="translate(585.7696,92.2004)">
			<path id="path628" class="st26" d="M-330.1,377.7c0,1.5,0.2,2.4,0.5,2.5c1.1,0.4,1.6,1.1,1.6,2v6.8c0,2.1-1.1,3.1-3.4,3.1h-4.8
				c-2.2,0-3.4-1-3.4-3.1v-15.5h2.4v15.5c0,0.6,0.3,1,0.9,1h4.8c0.6,0,0.9-0.3,0.9-1v-6.3c0-0.3-0.1-0.5-0.3-0.7
				c-0.2-0.2-0.5-0.3-0.9-0.5c-0.7-0.2-1-1.5-1-3.9H-330.1z"/>
		</g>
		<g id="g630" transform="translate(623.0822,92.2004)">
			<path id="path632" class="st26" d="M-344.6,377.7c0,1.5,0.2,2.4,0.5,2.5c1.1,0.4,1.6,1.1,1.6,2v6.8c0,2.1-1.1,3.1-3.4,3.1h-4.8
				c-2.2,0-3.4-1-3.4-3.1v-15.5h2.4v15.5c0,0.6,0.3,1,0.9,1h4.8c0.6,0,0.9-0.3,0.9-1v-6.3c0-0.3-0.1-0.5-0.3-0.7
				c-0.2-0.2-0.5-0.3-0.9-0.5c-0.7-0.2-1-1.5-1-3.9H-344.6z"/>
		</g>
		<g id="g634" transform="translate(635.0013,81.9552)">
			<path id="path636" class="st26" d="M-349.2,394.2v5.1c0,0.6,0.3,1,0.9,1h4.9c0.6,0,0.9-0.3,0.9-1l0.1-9c0-0.6-0.3-1-0.9-1h-1.2
				c-2.8,0-4.1-1.8-4.1-5.4h2.4c0,2.2,0.6,3.3,1.7,3.3h1.2c2.2,0,3.3,1,3.3,3.1l-0.1,9c0,2.1-1.1,3.1-3.4,3.1h-4.9
				c-2.2,0-3.4-1-3.4-3.1v-5.1H-349.2z"/>
		</g>
		<g id="g638" transform="translate(658.6175,81.9552)">
			<path id="path640" class="st26" d="M-358.4,394.2v5.1c0,0.6,0.3,1,0.9,1h4.9c0.6,0,0.9-0.3,0.9-1l0.1-9c0-0.6-0.3-1-0.9-1h-1.2
				c-2.8,0-4.1-1.8-4.1-5.4h2.4c0,2.2,0.6,3.3,1.7,3.3h1.2c2.2,0,3.3,1,3.3,3.1l-0.1,9c0,2.1-1.1,3.1-3.4,3.1h-4.9
				c-2.2,0-3.4-1-3.4-3.1v-5.1H-358.4z"/>
		</g>
		<g id="g642" transform="translate(693.2952,72.0097)">
			<path id="path644" class="st26" d="M-371.9,410.3c0.6,0,0.9-0.3,0.9-1v-6.1c0-0.7-0.4-1.1-1.2-1.1h-5.6c-0.6,0-0.9,0.4-0.9,1.1
				v6.1c0,0.6,0.3,1,0.9,1H-371.9z M-381.1,403.2c0-2.2,1.1-3.2,3.3-3.2h4.5v-3c0-0.6-0.3-1-1-1h-1.9c-0.7,0-1.1,0.3-1,0.8l0,1h-2.3
				v-1.5c0-1.6,1-2.4,2.9-2.4h3.2c1.7,0,2.6,0.9,2.6,2.6v3.7c0.8,0,1.4,0.2,1.7,0.6c0.4,0.4,0.6,1,0.6,1.8v6.8
				c0,2.1-1.1,3.1-3.4,3.1h-5.8c-2.2,0-3.4-1-3.4-3.1V403.2z"/>
		</g>
		<g id="g646" transform="translate(704.553,93.8744)">
			<path id="path648" class="st26" d="M-376.3,375c0-0.1,0-0.1,0-0.2v-0.2c0-0.9,0.3-1.6,0.8-2.1c0.5-0.4,1.3-0.7,2.3-0.7h4.3
				c2.2,0,3.4,1,3.4,3v12.5c0,2.1-1.1,3.1-3.4,3.1h-4.9c-2.2,0-3.4-1-3.4-3.1l0.1-4.7h2.4l-0.1,4.7c0,0.6,0.3,1,0.9,1h4.9
				c0.6,0,0.9-0.3,0.9-1V375c0-0.6-0.3-0.9-0.9-0.9h-4.3c-0.5,0-0.8,0.3-0.8,0.9l0.1,3.5h-2.4V375z"/>
		</g>
		<g id="g650" transform="translate(740.3312,72.0097)">
			<path id="path652" class="st26" d="M-390.2,410.3c0.6,0,0.9-0.3,0.9-1V403c0-0.6-0.3-0.9-0.9-0.9h-4c-1.2,0-1.8,0.3-1.8,0.9v6.3
				c0,0.6,0.3,1,0.9,1H-390.2z M-398.4,397.2c0-2.1,1.1-3.1,3.4-3.1l7,0v2.1l-7,0c-0.6,0-0.9,0.3-0.9,1v3.4c0.6-0.4,1.2-0.6,1.7-0.6
				h4c2.2,0,3.4,1,3.4,3v6.3c0,2.1-1.1,3.1-3.4,3.1h-4.9c-2.2,0-3.4-1-3.4-3.1V397.2z"/>
		</g>
		<g id="g654" transform="translate(759.8813,94.2128)">
			<path id="path656" class="st26" d="M-397.8,374.5h-2.4c-0.6,0-0.9,0.3-0.9,0.8v11.8c0,0.6,0.3,1,0.9,1h7.3c0.5,0,0.8-0.3,0.8-1
				v-11.8c0-0.5-0.3-0.8-0.8-0.8h-2.7v8.2h-2.2V374.5z M-403.6,375.5c0-1.9,1.1-2.9,3.3-2.9h2.5v-0.9h2.2v0.9h2.7
				c2.2,0,3.2,1,3.2,2.9v11.6c0,2.1-1.1,3.1-3.2,3.1h-7.3c-2.2,0-3.4-1-3.4-3.1V375.5z"/>
		</g>
		<g id="g658" transform="translate(790.1157,76.9721)">
			<path id="path660" class="st26" d="M-409.5,402.3V392c0-0.7-0.6-1-1.8-1h-2.3c-0.6,0-0.9,0.3-0.9,1l0.1,15.2h-2.4L-417,392
				c0-2.1,1.1-3.1,3.3-3.1h2.3c1.2,0,2.2,0.6,3,1.9c0.8-1.2,1.8-1.9,3-1.9h2.1c2.3,0,3.4,1,3.4,3.1l-0.1,15.2h-2.4l0.1-15.2
				c0-0.7-0.3-1-1-1h-2.1c-1.2,0-1.8,0.3-1.8,1v10.3H-409.5z"/>
		</g>
	</g>
</g>
</svg>
